<svg width="59" height="26" viewBox="0 0 59 26" fill="none" xmlns="http://www.w3.org/2000/svg">
<path d="M11.8056 3.35287C12.5272 2.4503 13.0169 1.23841 12.8877 0C11.8314 0.0525253 10.5423 0.696897 9.79605 1.60018C9.12596 2.3737 8.53287 3.63633 8.68749 4.82283C9.87327 4.92568 11.058 4.23012 11.8056 3.35287Z" fill="white"/>
<path d="M12.8742 5.05445C11.1521 4.95187 9.68795 6.03179 8.86559 6.03179C8.04277 6.03179 6.78346 5.10614 5.42141 5.13109C3.64863 5.15713 2.00368 6.15947 1.10407 7.75368C-0.746289 10.9429 0.615759 15.6736 2.41513 18.271C3.28895 19.556 4.34204 20.9709 5.72966 20.9201C7.04073 20.8687 7.55461 20.0712 9.14827 20.0712C10.7408 20.0712 11.2037 20.9201 12.5915 20.8944C14.0307 20.8686 14.9305 19.6087 15.8043 18.3224C16.8067 16.8576 17.2171 15.4431 17.2429 15.3655C17.2171 15.3398 14.4677 14.285 14.4422 11.1223C14.4162 8.47416 16.6008 7.21455 16.7036 7.13643C15.4699 5.31187 13.5424 5.10614 12.8742 5.05445Z" fill="white"/>
<path d="M27.418 2.99808C30.9277 2.99808 33.3717 5.41739 33.3717 8.93971C33.3717 12.4746 30.8774 14.9065 27.33 14.9065H23.444V21.0863H20.6364V2.99808H27.418V2.99808ZM23.444 12.5498H26.6655C29.11 12.5498 30.5012 11.2338 30.5012 8.95228C30.5012 6.67104 29.11 5.36733 26.6781 5.36733H23.444V12.5498Z" fill="white"/>
<path d="M34.1048 17.3381C34.1048 15.0315 35.8723 13.6151 39.0063 13.4395L42.6162 13.2265V12.2113C42.6162 10.7446 41.6258 9.86717 39.9715 9.86717C38.4043 9.86717 37.4265 10.6191 37.1886 11.7976H34.6315C34.7818 9.41575 36.8124 7.66087 40.0716 7.66087C43.268 7.66087 45.3111 9.35313 45.3111 11.998V21.086H42.7163V18.9174H42.6539C41.8894 20.3841 40.222 21.3116 38.4923 21.3116C35.91 21.3116 34.1048 19.7071 34.1048 17.3381ZM42.6162 16.1473V15.1069L39.3695 15.3073C37.7524 15.4203 36.8375 16.1347 36.8375 17.2629C36.8375 18.416 37.7901 19.1682 39.2442 19.1682C41.1369 19.1682 42.6162 17.8645 42.6162 16.1473Z" fill="white"/>
<path d="M47.761 25.9373V23.7436C47.9612 23.7936 48.4124 23.7936 48.6382 23.7936C49.8917 23.7936 50.5687 23.2673 50.9821 21.9135C50.9821 21.8884 51.2205 21.1113 51.2205 21.0987L46.4573 7.89915H49.3902L52.7249 18.6293H52.7747L56.1094 7.89915H58.9673L54.0281 21.7755C52.9004 24.9721 51.5967 25.9999 48.8641 25.9999C48.6382 25.9999 47.9612 25.9748 47.761 25.9373Z" fill="white"/>
</svg>
