<svg width="57" height="24" viewBox="0 0 57 24" fill="none" xmlns="http://www.w3.org/2000/svg">
<path d="M38.0588 19.6968C32.3351 19.6968 26.6113 19.6953 20.8875 19.6922C20.7854 19.6869 20.6835 19.7056 20.5899 19.7468C20.4964 19.788 20.4138 19.8505 20.3487 19.9294C17.7698 22.7421 14.5625 24.0481 10.7613 23.793C5.4806 23.435 1.06221 19.3554 0.207892 14.1205C-0.290092 11.1164 0.409497 8.03667 2.15651 5.54247C3.90352 3.04826 6.55872 1.33833 9.55221 0.779679C14.4682 -0.150368 19.4964 2.24982 21.886 6.65758C22.0627 6.98376 22.0627 6.98509 21.6946 6.98575C20.9081 6.98575 20.1222 6.97512 19.3363 6.99173C19.0872 6.99771 18.9377 6.916 18.7856 6.72135C17.3294 4.86923 15.4441 3.71929 13.1116 3.33997C10.9322 2.98619 8.69868 3.44643 6.8366 4.63301C4.97452 5.81959 3.61394 7.64963 3.01398 9.77457C1.54317 14.9908 4.99432 20.3492 10.3879 21.0879C14.0948 21.5955 17.0311 20.1878 19.1809 17.1465C19.3376 16.9253 19.4878 16.8562 19.7442 16.8562C30.9699 16.862 42.1958 16.8584 53.4219 16.8456C55.0196 16.8409 55.7417 18.3071 55.6141 19.5188C55.6022 19.6357 55.5617 19.7061 55.4308 19.6975C55.3424 19.6922 55.2534 19.6975 55.1651 19.6975L38.0588 19.6968Z" fill="#3BB3D6"/>
<path d="M4.69274 11.7881C4.69274 10.5923 4.70071 9.3965 4.6861 8.20073C4.6861 7.935 4.7419 7.83602 5.02756 7.84399C5.72376 7.86458 6.42263 7.84997 7.11884 7.8513C7.94791 7.8513 8.42555 8.22265 8.65806 9.03113C8.96542 10.1033 9.27544 11.1747 9.58811 12.2451C9.61801 12.3467 9.58811 12.5235 9.76482 12.5108C9.90831 12.5035 9.88772 12.3487 9.91629 12.2517C10.229 11.1809 10.539 10.1095 10.8463 9.03777C11.0848 8.21003 11.5591 7.84864 12.4121 7.84797C13.1203 7.84797 13.8285 7.85528 14.538 7.84332C14.7539 7.83934 14.8216 7.89913 14.821 8.12034C14.8139 10.577 14.8139 13.0337 14.821 15.4903C14.821 15.7315 14.7419 15.7839 14.5187 15.7793C13.8663 15.766 13.2126 15.7633 12.5603 15.7793C12.3185 15.7853 12.27 15.7016 12.2713 15.4783C12.2813 14.161 12.2766 12.8443 12.2759 11.5276C12.2759 11.4499 12.2759 11.3722 12.2759 11.2951C12.2759 11.2181 12.2919 11.1231 12.1823 11.1151C12.0727 11.1071 12.0687 11.2008 12.0494 11.2739L11.5811 12.7932C11.3054 13.6907 11.023 14.5868 10.7586 15.4863C10.6962 15.6976 10.6165 15.7939 10.3753 15.78C9.95614 15.756 9.5343 15.7627 9.11312 15.78C8.91383 15.7873 8.82813 15.7235 8.76901 15.5268C8.36576 14.1836 7.94724 12.845 7.53337 11.5057C7.51411 11.4393 7.49484 11.3788 7.47292 11.3164C7.44236 11.2294 7.45033 11.0885 7.30551 11.1244C7.19191 11.153 7.23908 11.2745 7.23908 11.3543C7.23908 12.6829 7.23908 14.0115 7.23908 15.3402C7.23908 15.849 7.30152 15.7726 6.7973 15.7766C6.18879 15.7806 5.58027 15.7673 4.97175 15.7826C4.75054 15.7879 4.69141 15.7195 4.69274 15.5036C4.69739 14.2653 4.69274 13.0277 4.69274 11.7881Z" fill="#7CB342"/>
<path d="M27.3758 15.7793C26.4677 15.7793 25.5649 15.7793 24.6621 15.7793C24.494 15.7793 24.4748 15.6464 24.4223 15.5448C24.0596 14.8612 23.6975 14.1776 23.3474 13.4854C23.2617 13.3173 23.1674 13.2309 22.9681 13.2475C22.7362 13.2658 22.5031 13.2658 22.2712 13.2475C22.06 13.2316 22.0101 13.314 22.0135 13.5133C22.0247 14.1776 22.0088 14.8419 22.0228 15.5062C22.0274 15.7255 21.961 15.7859 21.7451 15.7813C21.0808 15.768 20.4164 15.7666 19.7521 15.7813C19.5229 15.7866 19.4817 15.7029 19.4831 15.4969C19.491 14.2347 19.4884 12.9725 19.4831 11.7103C19.4831 11.5529 19.4797 11.4446 19.7003 11.4446C22.1908 11.4526 24.6827 11.4506 27.1719 11.4526C27.2031 11.4595 27.2334 11.4699 27.2622 11.4838C27.1504 11.8075 26.9746 12.1055 26.7453 12.36C26.5161 12.6145 26.238 12.8203 25.9276 12.9652C25.6865 13.0801 25.6785 13.1579 25.82 13.3638C26.2983 14.0554 26.76 14.7589 27.2231 15.4597C27.2842 15.5501 27.3772 15.6238 27.3758 15.7793Z" fill="#7CB342"/>
<path d="M22.2001 7.85466C23.085 7.85466 23.9699 7.83871 24.8574 7.85864C26.3588 7.89186 27.5572 9.2391 27.4482 10.7292C27.4277 11.0128 27.3433 11.1191 27.0337 11.1138C25.729 11.0939 24.4236 11.1138 23.1182 11.1038C21.2282 11.0892 19.681 9.90807 19.2027 8.16024C19.129 7.88986 19.1934 7.84536 19.4492 7.84868C20.3673 7.8613 21.2854 7.85333 22.2034 7.85333L22.2001 7.85466Z" fill="#3BB3D6"/>
<path d="M18.4202 11.7875C18.4202 13.0264 18.4162 14.2647 18.4241 15.5037C18.4241 15.7096 18.3849 15.7913 18.1584 15.786C17.4841 15.7701 16.8092 15.7741 16.1349 15.786C15.9522 15.786 15.8891 15.7428 15.8891 15.5488C15.8957 13.0603 15.8957 10.572 15.8891 8.08389C15.8891 7.9198 15.923 7.84872 16.107 7.85138C16.7926 7.86134 17.4782 7.86599 18.1664 7.85138C18.4069 7.84473 18.4281 7.9477 18.4268 8.14235C18.4168 9.35473 18.4202 10.5711 18.4202 11.7875Z" fill="#7CB342"/>
<path d="M42.7237 13.158C42.7237 12.4392 42.7303 11.7204 42.7197 11.001C42.7197 10.8017 42.7775 10.7352 42.9854 10.7352C43.8258 10.7452 44.6668 10.7439 45.5098 10.7352C45.6978 10.7352 45.7822 10.7691 45.7862 10.9863C45.8021 11.7769 45.8114 11.7769 45.0249 11.7769C44.7372 11.7769 44.4489 11.7882 44.1612 11.7736C43.9679 11.7636 43.9227 11.836 43.9201 12.0194C43.9095 12.6471 43.9022 12.6465 44.5386 12.6465H44.6382C45.4533 12.6465 45.448 12.6465 45.4022 13.4576C45.3929 13.619 45.3417 13.6649 45.1876 13.6609C44.8555 13.6529 44.5233 13.6675 44.1911 13.6556C43.9998 13.6483 43.9201 13.6915 43.9174 13.9074C43.9088 14.5717 43.8988 14.5717 44.5645 14.5717C44.9292 14.5717 45.2952 14.5843 45.6593 14.5677C45.8958 14.5571 45.8971 14.7138 45.8553 14.8427C45.7735 15.0918 46.0884 15.5442 45.6712 15.5775C44.7591 15.6505 43.8371 15.5961 42.919 15.6034C42.7097 15.6034 42.7263 15.4805 42.7263 15.343C42.7254 14.6166 42.7245 13.8883 42.7237 13.158Z" fill="#3BB3D6"/>
<path d="M37.6111 13.1778C37.6536 12.1574 38.0575 11.3662 38.9782 10.9364C39.9528 10.4807 40.9094 10.5743 41.8042 11.1915C41.9484 11.2911 41.9896 11.3855 41.878 11.5429C41.7378 11.7422 41.6634 12.0232 41.4794 12.1408C41.2608 12.281 41.0808 11.9794 40.8695 11.8983C40.2524 11.6598 39.5841 11.7482 39.2048 12.1574C38.8254 12.5666 38.7444 13.3452 39.0347 13.9013C39.317 14.442 39.9402 14.7064 40.5626 14.5476C40.7637 14.4884 40.9569 14.405 41.1379 14.2992C41.2774 14.2241 41.4229 13.9723 41.5272 14.0693C41.7551 14.2826 41.9139 14.5742 42.0819 14.8446C42.1278 14.9177 42.0208 14.9775 41.965 15.0226C41.0788 15.7481 40.0883 15.8862 39.046 15.4558C38.0382 15.0386 37.6529 14.1989 37.6111 13.1778Z" fill="#3BB3D6"/>
<path d="M32.8851 13.1959C32.903 12.1708 33.3136 11.3829 34.2263 10.9445C35.1962 10.4794 36.1529 10.5691 37.0543 11.1803C37.2078 11.2846 37.2742 11.3916 37.1354 11.5523C37.1217 11.5697 37.1097 11.5884 37.0995 11.6081C36.9766 11.8041 36.8956 12.0831 36.7189 12.1735C36.5422 12.2638 36.3595 11.9901 36.1575 11.9124C35.6075 11.7018 35.0674 11.6666 34.5897 12.0552C34.1307 12.4279 34.0543 12.9461 34.1612 13.5014C34.314 14.2926 35.0481 14.751 35.832 14.5471C36.0111 14.4918 36.1844 14.4193 36.3495 14.3305C36.5129 14.2534 36.6684 13.9724 36.7986 14.0801C37.0284 14.2694 37.1792 14.561 37.3433 14.8221C37.4038 14.9184 37.2809 14.9749 37.2184 15.0267C36.3322 15.7575 35.3384 15.8903 34.3001 15.4512C33.3136 15.0367 32.9116 14.2116 32.8851 13.1959Z" fill="#3BB3D6"/>
<path d="M54.3838 10.589C55.0694 10.589 55.7557 10.5943 56.4432 10.585C56.6226 10.585 56.687 10.6255 56.6923 10.8202C56.7136 11.7223 56.7202 11.7223 55.8181 11.7223C55.0402 11.7223 55.0402 11.7223 55.0402 12.4876C55.0402 13.5612 55.0355 14.634 55.0442 15.7069C55.0442 15.9142 55.001 16.0112 54.7725 15.9913C54.5516 15.9692 54.329 15.9692 54.1081 15.9913C53.7979 16.0265 53.6936 15.9361 53.7002 15.602C53.7228 14.4188 53.7003 13.2343 53.7142 12.0512C53.7142 11.8034 53.669 11.6944 53.3933 11.7157C53.0519 11.7416 52.7071 11.711 52.365 11.7257C52.1584 11.7343 52.08 11.6831 52.078 11.4559C52.072 10.5883 52.0634 10.5883 52.9243 10.5883L54.3838 10.589Z" fill="#3BB3D6"/>
<path d="M46.2226 10.7312C47.5061 10.7312 48.7882 10.6927 50.0677 10.7438C51.0223 10.7824 51.7338 11.7044 51.6421 12.6518C51.6328 12.7487 51.6514 12.863 51.4987 12.8584C50.3846 12.8218 49.2612 12.9793 48.1585 12.7707C47.146 12.5787 46.3694 11.7177 46.2226 10.7312Z" fill="#3BB3D6"/>
<path d="M51.6276 13.057C51.3977 13.7246 50.9021 14.102 50.2471 14.1139C49.5728 14.1265 48.8979 14.1305 48.2236 14.1139C47.9579 14.1066 47.8456 14.1704 47.8669 14.456C47.8908 14.7749 47.8669 15.0971 47.8742 15.418C47.8742 15.5708 47.8263 15.6226 47.6656 15.6326C46.6691 15.6943 46.6691 15.699 46.6691 14.7118C46.6691 14.2362 46.6751 13.7605 46.6691 13.2855C46.6658 13.1148 46.7189 13.0543 46.895 13.055C48.4621 13.0596 50.0312 13.057 51.6276 13.057Z" fill="#3BB3D6"/>
<path d="M32.6759 15.303C32.2108 13.9803 31.7657 12.6504 31.314 11.3231C31.1147 10.7418 31.1147 10.7418 30.5089 10.7418C30.4317 10.7488 30.3541 10.7488 30.277 10.7418C29.9541 10.682 29.812 10.8295 29.7256 11.1337C29.5775 11.6532 29.3862 12.1608 29.2128 12.673C28.9112 13.5618 28.6082 14.45 28.3106 15.3395C28.2794 15.4332 28.1472 15.5913 28.377 15.6013C28.7192 15.6159 29.0925 15.6797 29.3941 15.5667C29.6067 15.4877 29.5688 15.0964 29.6599 14.8506C29.6736 14.8204 29.6841 14.7887 29.6911 14.7563C29.7083 14.6201 29.7834 14.5782 29.9169 14.5809C30.2929 14.5882 30.6696 14.5902 31.0463 14.5809C31.1958 14.5762 31.2622 14.634 31.3027 14.7709C31.3838 15.0433 31.3691 15.41 31.5837 15.5594C31.8116 15.7175 32.1643 15.5814 32.46 15.6119C32.737 15.6372 32.7642 15.5568 32.6759 15.303ZM30.2431 12.8596C30.3268 12.568 30.3979 12.2724 30.4896 11.9223C30.651 12.5202 30.7998 13.0629 30.9493 13.6123C29.992 13.7206 29.994 13.7213 30.2431 12.8596Z" fill="#3BB3D6"/>
</svg>
