<svg width="21" height="21" viewBox="0 0 21 21" fill="none" xmlns="http://www.w3.org/2000/svg">
<path fill-rule="evenodd" clip-rule="evenodd" d="M4.07125 2.50254C3.89365 2.50216 3.72244 2.52226 3.55976 2.56048C3.33674 2.06893 3.04216 1.62794 2.70711 1.29289C2.13843 0.724221 1.24155 0.5 0 0.5V2.5C0.758448 2.5 1.1949 2.60911 1.29289 2.70711C1.67086 3.08508 2 3.85306 2 4.5L2.01005 4.64142L2.98992 11.5005C1.35036 11.5856 0.0801976 12.8588 0.00122858 14.4504L0 15.5C0.0968212 17.1439 1.36275 18.4085 2.94324 18.4984L3.17026 18.4987C3.58174 19.6646 4.69331 20.5 6 20.5C7.30622 20.5 8.41746 19.6652 8.82929 18.5H11.1707C11.5825 19.6652 12.6938 20.5 14 20.5C15.6569 20.5 17 19.1569 17 17.5C17 15.8431 15.6569 14.5 14 14.5C12.6938 14.5 11.5825 15.3348 11.1707 16.5H8.82929C8.41746 15.3348 7.30622 14.5 6 14.5C4.69378 14.5 3.58254 15.3348 3.17071 16.5H3C2.49001 16.4694 2.03254 16.0124 1.99821 15.4401L2 14.5C2.02697 13.9813 2.48131 13.527 3.04955 13.4988L5.02369 13.4993L5.038 13.5H15.1169L15.2645 13.4532C16.0227 13.2126 16.6296 12.6416 16.917 11.9025L17.0224 11.694L17.3647 11.0159C17.7188 10.3139 18.0729 9.61076 18.418 8.9238C19.2632 7.24107 19.7948 6.17166 19.9125 5.90906C20.5171 4.56045 19.2924 3.52246 18.0407 3.50036L4.07125 2.50254ZM14.7694 11.5H5.11287C5.04866 11.4822 4.99973 11.4278 4.99015 11.36L4.01026 4.50073L17.8934 5.49493C17.6505 5.99032 17.2089 6.87516 16.6308 8.02609L16.6163 8.05493C16.2863 8.71186 15.9326 9.41405 15.579 10.1151L15.2371 10.7923L15.1076 11.0488L15.0588 11.1622C15.0065 11.3078 14.9028 11.4274 14.7694 11.5ZM14 18.5C14.5523 18.5 15 18.0523 15 17.5C15 16.9477 14.5523 16.5 14 16.5C13.4477 16.5 13 16.9477 13 17.5C13 18.0523 13.4477 18.5 14 18.5ZM7 17.5C7 18.0523 6.55228 18.5 6 18.5C5.44772 18.5 5 18.0523 5 17.5C5 16.9477 5.44772 16.5 6 16.5C6.55228 16.5 7 16.9477 7 17.5Z" fill="white"/>
</svg>
