<svg width="42" height="24" viewBox="0 0 42 24" fill="none" xmlns="http://www.w3.org/2000/svg">
<path fill-rule="evenodd" clip-rule="evenodd" d="M35.8677 15.4617C35.812 15.9179 35.7363 16.3582 35.6426 16.7785C35.2442 16.651 34.8019 16.4458 34.1644 16.4896C33.7859 16.5155 33.3356 16.661 33.3297 17.0036C33.3297 17.3822 33.9472 17.6013 34.2939 17.7746C34.9194 18.0735 35.5908 18.4739 35.6426 19.2847C35.6577 19.5581 35.614 19.8316 35.5143 20.0866C35.4147 20.3416 35.2614 20.5723 35.0649 20.763C34.1883 21.5917 32.2459 21.6774 30.9191 21.1494C31.0027 20.7072 31.0765 20.2569 31.1442 19.7987C31.6582 20.0179 32.3634 20.3127 33.1364 20.2171C33.489 20.1733 33.9193 19.9681 33.9074 19.6055C33.8935 19.1652 33.0687 18.9022 32.6543 18.6751C32.1722 18.4081 31.6243 17.9679 31.5944 17.2925C31.5825 16.8741 31.7187 16.4649 31.9789 16.137C32.6643 15.2863 34.4254 14.9835 35.8677 15.4636V15.4617Z" fill="#153067"/>
<path fill-rule="evenodd" clip-rule="evenodd" d="M20.1192 6.85522H21.8903L20.8005 13.7304H19.0275L20.1192 6.85522Z" fill="#153067"/>
<path fill-rule="evenodd" clip-rule="evenodd" d="M15.5352 8.22189L15.2623 9.94715H15.7743C16.0207 9.94309 16.2586 9.85558 16.4489 9.6989C16.6392 9.54222 16.7708 9.32563 16.8222 9.08452C16.8416 8.97532 16.836 8.86314 16.8059 8.75639C16.7758 8.64964 16.722 8.55108 16.6484 8.4681C16.5748 8.38511 16.4834 8.31986 16.381 8.27722C16.2786 8.23458 16.1679 8.21567 16.0571 8.22189H15.5352ZM13.9813 6.85522H16.6927C18.4199 6.85522 18.8682 7.85133 18.6849 9.04667C18.6117 9.50548 18.4011 9.93135 18.0811 10.2681C17.761 10.6049 17.3464 10.8368 16.8919 10.9333L18.6112 13.7403H16.3779L15.0889 11.0309L14.6606 13.7304H12.8835L13.9753 6.85522H13.9813Z" fill="#153067"/>
<path fill-rule="evenodd" clip-rule="evenodd" d="M28.2097 6.85522H29.9828L28.8911 13.7304H27.12L28.2097 6.85522Z" fill="#153067"/>
<path fill-rule="evenodd" clip-rule="evenodd" d="M31.3275 6.85522H35.2183L34.9813 8.34939H32.8635L32.6763 9.5248H34.6904L34.4533 11.019H32.4392L32.246 12.2362H34.3637L34.1266 13.7304H30.2378L31.3275 6.85522Z" fill="#153067"/>
<path fill-rule="evenodd" clip-rule="evenodd" d="M9.03652 6.85522H12.9273L12.6903 8.34939H10.5725L10.3853 9.5248H12.3994L12.1623 11.019H10.1482L9.95493 12.2362H12.0727L11.8356 13.7304H7.94678L9.03652 6.85522Z" fill="#153067"/>
<path fill-rule="evenodd" clip-rule="evenodd" d="M23.2331 6.85522H27.1657L26.9287 8.34939H24.7671L24.5778 9.5248H26.5442L26.3071 11.019H24.3408L23.9104 13.7304H22.1414L23.2331 6.85522Z" fill="#153067"/>
<path fill-rule="evenodd" clip-rule="evenodd" d="M37.7863 8.34939H38.1528C39.5075 8.34939 40.0375 9.30565 39.89 10.2261C39.6908 11.4632 38.8063 12.2362 37.6448 12.2362H37.1886L37.7863 8.34939ZM36.2522 6.85522H38.5612C41.3125 6.85522 41.948 8.9351 41.7229 10.2938C41.4161 12.2362 39.6848 13.7304 37.4715 13.7304H35.1705L36.2602 6.85522H36.2522Z" fill="#153067"/>
<path fill-rule="evenodd" clip-rule="evenodd" d="M0.730957 5.91888H4.00816L4.4066 10.9134C6.56617 7.16004 8.76956 3.54814 10.9909 0H12.0587C9.70989 4.5323 7.38895 9.09448 5.14173 13.7304H2.73513L2.14742 8.22189C2.00199 6.85523 1.72707 6.27549 0.730957 6.12807V5.91888Z" fill="#153067"/>
<path fill-rule="evenodd" clip-rule="evenodd" d="M1.97223 3.07797L4.76731 4.26334L5.01036 7.37519H5.21556L7.75166 3.07997V2.86481H1.97223V3.07797Z" fill="#153067"/>
<path fill-rule="evenodd" clip-rule="evenodd" d="M13.4593 15.3401H14.6068L14.2203 18.0495C14.5299 17.7318 14.9521 17.5486 15.3957 17.5395C16.3161 17.5395 16.9198 18.426 16.7564 19.5198C16.593 20.6135 15.7264 21.516 14.808 21.516C14.6082 21.5204 14.4108 21.4719 14.2358 21.3753C14.0608 21.2788 13.9146 21.1376 13.8119 20.9661L13.7521 21.3964H12.5986L13.4593 15.3401ZM14.8917 18.6492C15.316 18.6492 15.6029 19.0476 15.5352 19.5158C15.5089 19.7409 15.4058 19.9501 15.2432 20.108C15.0806 20.2659 14.8685 20.3628 14.6426 20.3824C14.2203 20.3824 13.9314 19.984 13.9992 19.5158C14.0254 19.2906 14.1285 19.0815 14.2911 18.9236C14.4537 18.7657 14.6659 18.6687 14.8917 18.6492Z" fill="#153067"/>
<path fill-rule="evenodd" clip-rule="evenodd" d="M16.856 17.6371H18.2306L18.8462 19.5576L20.0415 17.6371H21.3723L17.882 23.2432H16.5532L18.0234 20.8784L16.856 17.6371Z" fill="#153067"/>
<path fill-rule="evenodd" clip-rule="evenodd" d="M28.2097 21.3865L29.2177 15.3461H30.8673L29.8592 21.3865H28.2097Z" fill="#153067"/>
<path fill-rule="evenodd" clip-rule="evenodd" d="M26.8291 15.3401C26.2613 16.6789 25.7752 18.1013 25.1915 19.4221L25.0181 18.6253L25.048 18.7667C24.9127 18.3421 24.7022 17.9453 24.4264 17.5953C24.4198 17.5855 24.4124 17.5762 24.4045 17.5674C24.3567 17.5056 24.3049 17.4439 24.2531 17.3841L24.1575 17.2745C23.75 16.8373 23.28 16.4627 22.7629 16.1629L24.2392 21.3745H26.0063C26.8291 19.3345 27.7256 17.3622 28.5663 15.3401H26.8291Z" fill="#153067"/>
<path fill-rule="evenodd" clip-rule="evenodd" d="M23.7193 15.34H21.0238V15.4715C22.5757 15.7743 24.5341 17.0753 25.0481 18.7587L24.4684 15.9377C24.4449 15.7606 24.3538 15.5994 24.2142 15.488C24.0745 15.3766 23.8972 15.3236 23.7193 15.34Z" fill="#153067"/>
<path fill-rule="evenodd" clip-rule="evenodd" d="M38.9239 17.0056L38.0852 19.2528H39.4439L38.9239 17.0056ZM41.4261 21.4064H39.916C39.8184 21.1176 39.7925 20.759 39.6909 20.4741H37.6349L37.2504 21.4064H35.5152L37.7644 16.2267C37.864 15.9995 38.0413 15.6888 38.117 15.5513C38.2326 15.3521 38.6729 15.3262 38.8621 15.3262H40.1093L41.4261 21.4004V21.4064Z" fill="#153067"/>
</svg>
