<svg width="60" height="26" viewBox="0 0 60 26" fill="none" xmlns="http://www.w3.org/2000/svg">
<path d="M15 11L5 11L5 6C5 3.23858 7.23858 1 10 1C12.7614 1 15 3.23858 15 6L15 11Z" stroke="black" stroke-width="2"/>
<path d="M26.2529 22.5703L27.2373 22.4746C27.2965 22.805 27.4162 23.0477 27.5962 23.2026C27.7785 23.3576 28.0234 23.4351 28.3311 23.4351C28.6569 23.4351 28.9019 23.3667 29.0659 23.23C29.2323 23.091 29.3154 22.9292 29.3154 22.7446C29.3154 22.6261 29.2801 22.5259 29.2095 22.4438C29.1411 22.3595 29.0203 22.2866 28.8472 22.2251C28.7287 22.1841 28.4587 22.1112 28.0371 22.0063C27.4948 21.8719 27.1143 21.7067 26.8955 21.5107C26.5879 21.235 26.4341 20.8989 26.4341 20.5024C26.4341 20.2472 26.5059 20.0091 26.6494 19.7881C26.7952 19.5648 27.0037 19.395 27.2749 19.2788C27.5483 19.1626 27.8776 19.1045 28.2627 19.1045C28.8916 19.1045 29.3644 19.2424 29.6812 19.5181C30.0002 19.7938 30.1676 20.1618 30.1836 20.6221L29.1719 20.6665C29.1286 20.409 29.0352 20.2244 28.8916 20.1128C28.7503 19.9989 28.5373 19.9419 28.2524 19.9419C27.9585 19.9419 27.7284 20.0023 27.562 20.123C27.4549 20.2005 27.4014 20.3042 27.4014 20.4341C27.4014 20.5526 27.4515 20.654 27.5518 20.7383C27.6794 20.8454 27.9893 20.957 28.4814 21.0732C28.9736 21.1895 29.3371 21.3102 29.5718 21.4355C29.8088 21.5586 29.9933 21.7284 30.1255 21.9448C30.2599 22.159 30.3271 22.4245 30.3271 22.7412C30.3271 23.0283 30.2474 23.2972 30.0879 23.5479C29.9284 23.7985 29.7028 23.9854 29.4111 24.1084C29.1195 24.2292 28.756 24.2896 28.3208 24.2896C27.6873 24.2896 27.2008 24.1437 26.8613 23.8521C26.5218 23.5581 26.319 23.1309 26.2529 22.5703Z" fill="black"/>
<path d="M31.1782 24.2007V19.1899H34.8936V20.0376H32.1899V21.1484H34.7056V21.9927H32.1899V23.3564H34.9893V24.2007H31.1782Z" fill="black"/>
<path d="M39.0532 22.3584L40.0342 22.6694C39.8838 23.2163 39.6331 23.623 39.2822 23.8896C38.9336 24.154 38.4904 24.2861 37.9526 24.2861C37.2873 24.2861 36.7404 24.0594 36.312 23.606C35.8836 23.1502 35.6694 22.5282 35.6694 21.7397C35.6694 20.9058 35.8848 20.2586 36.3154 19.7983C36.7461 19.3358 37.3123 19.1045 38.0142 19.1045C38.6271 19.1045 39.125 19.2856 39.5078 19.6479C39.7357 19.8621 39.9066 20.1698 40.0205 20.5708L39.019 20.8101C38.9598 20.5503 38.8356 20.3452 38.6465 20.1948C38.4596 20.0444 38.2318 19.9692 37.9629 19.9692C37.5915 19.9692 37.2896 20.1025 37.0571 20.3691C36.827 20.6357 36.7119 21.0675 36.7119 21.6646C36.7119 22.298 36.8258 22.7492 37.0537 23.0181C37.2816 23.2869 37.5778 23.4214 37.9424 23.4214C38.2113 23.4214 38.4425 23.3359 38.6362 23.165C38.8299 22.9941 38.9689 22.7253 39.0532 22.3584Z" fill="black"/>
<path d="M40.8989 19.1899H41.9106V21.9038C41.9106 22.3345 41.9232 22.6136 41.9482 22.7412C41.9915 22.9463 42.0941 23.1115 42.2559 23.2368C42.4199 23.3599 42.6432 23.4214 42.9258 23.4214C43.2129 23.4214 43.4294 23.3633 43.5752 23.2471C43.721 23.1286 43.8088 22.9839 43.8384 22.813C43.868 22.6421 43.8828 22.3584 43.8828 21.9619V19.1899H44.8945V21.8218C44.8945 22.4233 44.8672 22.8483 44.8125 23.0967C44.7578 23.3451 44.6564 23.5547 44.5083 23.7256C44.3625 23.8965 44.1665 24.0332 43.9204 24.1357C43.6743 24.236 43.353 24.2861 42.9565 24.2861C42.478 24.2861 42.1146 24.2314 41.8662 24.1221C41.6201 24.0104 41.4253 23.8669 41.2817 23.6914C41.1382 23.5137 41.0436 23.328 40.998 23.1343C40.932 22.8472 40.8989 22.4233 40.8989 21.8628V19.1899Z" fill="black"/>
<path d="M45.9678 24.2007V19.1899H48.0972C48.6327 19.1899 49.0212 19.2355 49.2627 19.3267C49.5065 19.4155 49.7013 19.575 49.8472 19.8052C49.993 20.0353 50.0659 20.2985 50.0659 20.5947C50.0659 20.9707 49.9554 21.2817 49.7344 21.5278C49.5133 21.7716 49.1829 21.9255 48.7432 21.9893C48.9619 22.1169 49.1419 22.257 49.2832 22.4097C49.4268 22.5623 49.6193 22.8335 49.8608 23.2231L50.4727 24.2007H49.2627L48.5312 23.1104C48.2715 22.7207 48.0938 22.4757 47.998 22.3755C47.9023 22.2729 47.8009 22.2035 47.6938 22.167C47.5868 22.1283 47.417 22.1089 47.1846 22.1089H46.9795V24.2007H45.9678ZM46.9795 21.3091H47.728C48.2134 21.3091 48.5164 21.2886 48.6372 21.2476C48.758 21.2065 48.8525 21.1359 48.9209 21.0356C48.9893 20.9354 49.0234 20.8101 49.0234 20.6597C49.0234 20.491 48.9779 20.3555 48.8867 20.2529C48.7979 20.1481 48.6714 20.082 48.5073 20.0547C48.4253 20.0433 48.1792 20.0376 47.769 20.0376H46.9795V21.3091Z" fill="black"/>
<path d="M51.0229 24.2007V19.1899H54.7383V20.0376H52.0347V21.1484H54.5503V21.9927H52.0347V23.3564H54.834V24.2007H51.0229Z" fill="black"/>
<path d="M55.6885 19.1899H57.5376C57.9546 19.1899 58.2725 19.2218 58.4912 19.2856C58.7852 19.3722 59.0369 19.526 59.2466 19.7471C59.4562 19.9681 59.6157 20.2393 59.7251 20.5605C59.8345 20.8796 59.8892 21.2738 59.8892 21.7432C59.8892 22.1556 59.8379 22.5111 59.7354 22.8096C59.61 23.1742 59.4312 23.4692 59.1987 23.6948C59.0233 23.8657 58.7863 23.999 58.4878 24.0947C58.2645 24.1654 57.966 24.2007 57.5923 24.2007H55.6885V19.1899ZM56.7002 20.0376V23.3564H57.4556C57.7381 23.3564 57.9421 23.3405 58.0674 23.3086C58.2314 23.2676 58.367 23.1981 58.4741 23.1001C58.5835 23.0021 58.6724 22.8415 58.7407 22.6182C58.8091 22.3926 58.8433 22.0861 58.8433 21.6987C58.8433 21.3114 58.8091 21.014 58.7407 20.8066C58.6724 20.5993 58.5767 20.4375 58.4536 20.3213C58.3306 20.2051 58.1745 20.1265 57.9854 20.0854C57.8441 20.0535 57.5672 20.0376 57.1548 20.0376H56.7002Z" fill="black"/>
<path d="M30.21 15.1045V4.39941H26.3867V2.21973H36.626V4.39941H32.8115V15.1045H30.21Z" fill="#7CB342"/>
<path d="M38.3838 15.1045V2.3252H40.9854V12.9336H47.4541V15.1045H38.3838Z" fill="#7CB342"/>
<path d="M48.6582 10.9121L51.1895 10.666C51.3418 11.5156 51.6494 12.1396 52.1123 12.5381C52.5811 12.9365 53.2109 13.1357 54.002 13.1357C54.8398 13.1357 55.4697 12.96 55.8916 12.6084C56.3193 12.251 56.5332 11.835 56.5332 11.3604C56.5332 11.0557 56.4424 10.7979 56.2607 10.5869C56.085 10.3701 55.7744 10.1826 55.3291 10.0244C55.0244 9.91895 54.3301 9.73145 53.2461 9.46191C51.8516 9.11621 50.873 8.69141 50.3105 8.1875C49.5195 7.47852 49.124 6.61426 49.124 5.59473C49.124 4.93848 49.3086 4.32617 49.6777 3.75781C50.0527 3.18359 50.5889 2.74707 51.2861 2.44824C51.9893 2.14941 52.8359 2 53.8262 2C55.4434 2 56.6592 2.35449 57.4736 3.06348C58.2939 3.77246 58.7246 4.71875 58.7656 5.90234L56.1641 6.0166C56.0527 5.35449 55.8125 4.87988 55.4434 4.59277C55.0801 4.2998 54.5322 4.15332 53.7998 4.15332C53.0439 4.15332 52.4521 4.30859 52.0244 4.61914C51.749 4.81836 51.6113 5.08496 51.6113 5.41895C51.6113 5.72363 51.7402 5.98438 51.998 6.20117C52.3262 6.47656 53.123 6.76367 54.3887 7.0625C55.6543 7.36133 56.5889 7.67188 57.1924 7.99414C57.8018 8.31055 58.2764 8.74707 58.6162 9.30371C58.9619 9.85449 59.1348 10.5371 59.1348 11.3516C59.1348 12.0898 58.9297 12.7812 58.5195 13.4258C58.1094 14.0703 57.5293 14.5508 56.7793 14.8672C56.0293 15.1777 55.0947 15.333 53.9756 15.333C52.3467 15.333 51.0957 14.958 50.2227 14.208C49.3496 13.4521 48.8281 12.3535 48.6582 10.9121Z" fill="#7CB342"/>
<path d="M0 10H20V16C20 21.5228 15.5228 26 10 26C4.47715 26 0 21.5228 0 16V10Z" fill="#7CB342"/>
<path fill-rule="evenodd" clip-rule="evenodd" d="M9.50021 20.7393C9.78867 20.7393 10.0092 20.7393 10.3737 20.5775C11.6333 19.9154 15.8723 9.56285 20.3434 6.37849C20.3694 6.35803 20.4065 6.32843 20.4278 6.29805C20.4565 6.25608 20.4576 6.21319 20.4576 6.21319C20.4576 6.21319 20.4576 6.00105 19.7946 6.00105C15.8141 5.89268 11.675 14.2367 9.50006 17.5379C9.47258 17.5746 9.32301 17.5379 9.32301 17.5379C9.32301 17.5379 7.86544 15.8179 6.59866 15.1585C6.57271 15.1448 6.42772 15.1005 6.27815 15.1112C6.17894 15.1112 5.58981 15.2287 5.31508 15.5203C4.99152 15.8621 4.99762 16.0544 5.00068 16.4711C5.0022 16.5047 5.02357 16.6436 5.06325 16.7138C5.37308 17.2556 6.78791 19.2 7.94634 20.273C8.12643 20.4012 8.39963 20.7415 9.50158 20.7415L9.50021 20.7393Z" fill="white"/>
</svg>
