<svg width="50" height="19" viewBox="0 0 50 19" fill="none" xmlns="http://www.w3.org/2000/svg">
<path fill-rule="evenodd" clip-rule="evenodd" d="M47.3159 7.74015C47.3239 7.5594 47.3849 7.38498 47.4911 7.23853C47.5974 7.09209 47.7443 6.98007 47.9136 6.91637C48.083 6.85268 48.2673 6.84012 48.4437 6.88025C48.6201 6.92037 48.7809 7.01142 48.906 7.1421C49.0312 7.27277 49.1152 7.43732 49.1476 7.61531C49.1801 7.79331 49.1596 7.97691 49.0886 8.14334C49.0176 8.30978 48.8994 8.45171 48.7485 8.55152C48.5976 8.65134 48.4207 8.70464 48.2397 8.70482C48.1152 8.7038 47.9922 8.67785 47.8779 8.6285C47.7636 8.57914 47.6603 8.50739 47.5742 8.41747C47.4881 8.32754 47.4209 8.22128 47.3765 8.10495C47.3322 7.98862 47.3116 7.86458 47.3159 7.74015ZM48.2397 8.49499C48.4301 8.48929 48.6104 8.40835 48.7412 8.26992C48.8719 8.13149 48.9425 7.94686 48.9373 7.7565C48.9411 7.56627 48.8701 7.38215 48.7397 7.2436C48.6093 7.10505 48.4298 7.02309 48.2397 7.01529C48.0513 7.02673 47.8743 7.10966 47.7449 7.24715C47.6155 7.38465 47.5434 7.56633 47.5434 7.75514C47.5434 7.94394 47.6155 8.12563 47.7449 8.26312C47.8743 8.40062 48.0513 8.48355 48.2397 8.49499ZM48.1117 8.17343H47.9182V7.32322H48.267C48.3394 7.31561 48.4125 7.32984 48.4768 7.3641C48.5101 7.38738 48.5368 7.41903 48.554 7.45587C48.5712 7.4927 48.5784 7.53342 48.5749 7.57392C48.5765 7.61938 48.5636 7.66418 48.5382 7.70187C48.5127 7.73957 48.476 7.76823 48.4332 7.78375L48.5885 8.15981H48.3787L48.2534 7.82463H48.1117V8.17343ZM48.1117 7.69928H48.2261C48.2639 7.70218 48.3019 7.69754 48.3378 7.68565C48.3523 7.67398 48.3635 7.6589 48.3707 7.64177C48.3778 7.62464 48.3806 7.60601 48.3787 7.58755C48.3793 7.57121 48.3758 7.55498 48.3687 7.54027C48.3616 7.52555 48.351 7.51278 48.3378 7.50307C48.3017 7.492 48.2639 7.48739 48.2261 7.48945H48.128L48.1117 7.69928Z" fill="white" fill-opacity="0.5"/>
<path fill-rule="evenodd" clip-rule="evenodd" d="M47.3159 7.74015C47.3239 7.5594 47.3849 7.38498 47.4911 7.23853C47.5974 7.09209 47.7443 6.98007 47.9136 6.91637C48.083 6.85268 48.2673 6.84012 48.4437 6.88025C48.6201 6.92037 48.7809 7.01142 48.906 7.1421C49.0312 7.27277 49.1152 7.43732 49.1476 7.61531C49.1801 7.79331 49.1596 7.97691 49.0886 8.14334C49.0176 8.30978 48.8994 8.45171 48.7485 8.55152C48.5976 8.65134 48.4207 8.70464 48.2397 8.70482C48.1152 8.7038 47.9922 8.67785 47.8779 8.6285C47.7636 8.57914 47.6603 8.50739 47.5742 8.41747C47.4881 8.32754 47.4209 8.22128 47.3765 8.10495C47.3322 7.98862 47.3116 7.86458 47.3159 7.74015ZM48.2397 8.49499C48.4301 8.48929 48.6104 8.40835 48.7412 8.26992C48.8719 8.13149 48.9425 7.94686 48.9373 7.7565C48.9411 7.56627 48.8701 7.38215 48.7397 7.2436C48.6093 7.10505 48.4298 7.02309 48.2397 7.01529C48.0513 7.02673 47.8743 7.10966 47.7449 7.24715C47.6155 7.38465 47.5434 7.56633 47.5434 7.75514C47.5434 7.94394 47.6155 8.12563 47.7449 8.26312C47.8743 8.40062 48.0513 8.48355 48.2397 8.49499ZM48.1117 8.17343H47.9182V7.32322H48.267C48.3394 7.31561 48.4125 7.32984 48.4768 7.3641C48.5101 7.38738 48.5368 7.41903 48.554 7.45587C48.5712 7.4927 48.5784 7.53342 48.5749 7.57392C48.5765 7.61938 48.5636 7.66418 48.5382 7.70187C48.5127 7.73957 48.476 7.76823 48.4332 7.78375L48.5885 8.15981H48.3787L48.2534 7.82463H48.1117V8.17343ZM48.1117 7.69928H48.2261C48.2639 7.70218 48.3019 7.69754 48.3378 7.68565C48.3523 7.67398 48.3635 7.6589 48.3707 7.64177C48.3778 7.62464 48.3806 7.60601 48.3787 7.58755C48.3793 7.57121 48.3758 7.55498 48.3687 7.54027C48.3616 7.52555 48.351 7.51278 48.3378 7.50307C48.3017 7.492 48.2639 7.48739 48.2261 7.48945H48.128L48.1117 7.69928Z" fill="url(#paint0_linear)" fill-opacity="0.7"/>
<path fill-rule="evenodd" clip-rule="evenodd" d="M34.1077 1.2982L33.8543 2.94685C33.4365 2.69226 32.9591 2.55222 32.47 2.54082C31.3255 2.54082 30.5134 3.71531 30.5134 5.38031C30.5134 6.52482 31.0584 7.22516 31.955 7.22516C32.4175 7.19947 32.8675 7.06502 33.2684 6.83275L32.9959 8.56588C32.5562 8.71115 32.0965 8.78655 31.6334 8.78933C29.9684 8.78933 28.9356 7.53036 28.9356 5.51928C28.9356 2.81332 30.3608 0.905791 32.4155 0.905791C32.6481 0.902 32.8801 0.930429 33.1049 0.990268L33.748 1.15649C33.917 1.22735 33.9579 1.24097 34.0996 1.2982H34.1077Z" fill="white" fill-opacity="0.5"/>
<path fill-rule="evenodd" clip-rule="evenodd" d="M34.1077 1.2982L33.8543 2.94685C33.4365 2.69226 32.9591 2.55222 32.47 2.54082C31.3255 2.54082 30.5134 3.71531 30.5134 5.38031C30.5134 6.52482 31.0584 7.22516 31.955 7.22516C32.4175 7.19947 32.8675 7.06502 33.2684 6.83275L32.9959 8.56588C32.5562 8.71115 32.0965 8.78655 31.6334 8.78933C29.9684 8.78933 28.9356 7.53036 28.9356 5.51928C28.9356 2.81332 30.3608 0.905791 32.4155 0.905791C32.6481 0.902 32.8801 0.930429 33.1049 0.990268L33.748 1.15649C33.917 1.22735 33.9579 1.24097 34.0996 1.2982H34.1077Z" fill="url(#paint1_linear)" fill-opacity="0.7"/>
<path fill-rule="evenodd" clip-rule="evenodd" d="M28.9764 2.42901C28.9258 2.42186 28.8744 2.42186 28.8238 2.42901C28.3197 2.42901 28.0254 2.70152 27.5512 3.43455L27.6902 2.49986H26.2923L25.3412 8.65028H26.8945C27.4531 4.8761 27.5921 4.23299 28.3333 4.23299H28.445C28.547 3.60961 28.7446 3.00571 29.0309 2.44264H28.9764V2.42901Z" fill="white" fill-opacity="0.5"/>
<path fill-rule="evenodd" clip-rule="evenodd" d="M28.9764 2.42901C28.9258 2.42186 28.8744 2.42186 28.8238 2.42901C28.3197 2.42901 28.0254 2.70152 27.5512 3.43455L27.6902 2.49986H26.2923L25.3412 8.65028H26.8945C27.4531 4.8761 27.5921 4.23299 28.3333 4.23299H28.445C28.547 3.60961 28.7446 3.00571 29.0309 2.44264H28.9764V2.42901Z" fill="url(#paint2_linear)" fill-opacity="0.7"/>
<path fill-rule="evenodd" clip-rule="evenodd" d="M19.7358 8.56585C19.3863 8.69464 19.0181 8.76551 18.6458 8.77568C17.8637 8.77568 17.4304 8.30152 17.4304 7.41316C17.4321 7.23079 17.4458 7.04874 17.4713 6.86815L17.5694 6.26864L17.6402 5.77814L18.297 1.5625H19.8339L19.6513 2.47266H20.4498L20.2263 3.96599H19.4442L19.0382 6.53842C19.0382 6.65015 19.0109 6.73463 19.0109 6.79185C19.0109 7.11341 19.1772 7.25238 19.5396 7.25238C19.6818 7.25997 19.8242 7.24055 19.9593 7.19516L19.7358 8.55768V8.56585Z" fill="white" fill-opacity="0.5"/>
<path fill-rule="evenodd" clip-rule="evenodd" d="M19.7358 8.56585C19.3863 8.69464 19.0181 8.76551 18.6458 8.77568C17.8637 8.77568 17.4304 8.30152 17.4304 7.41316C17.4321 7.23079 17.4458 7.04874 17.4713 6.86815L17.5694 6.26864L17.6402 5.77814L18.297 1.5625H19.8339L19.6513 2.47266H20.4498L20.2263 3.96599H19.4442L19.0382 6.53842C19.0382 6.65015 19.0109 6.73463 19.0109 6.79185C19.0109 7.11341 19.1772 7.25238 19.5396 7.25238C19.6818 7.25997 19.8242 7.24055 19.9593 7.19516L19.7358 8.55768V8.56585Z" fill="url(#paint3_linear)" fill-opacity="0.7"/>
<path fill-rule="evenodd" clip-rule="evenodd" d="M13.6426 4.42926C13.6426 5.21135 14.0051 5.74273 14.8171 6.14876C15.4303 6.45396 15.542 6.55207 15.542 6.83274C15.542 7.2088 15.2695 7.39138 14.6618 7.39138C14.1889 7.39322 13.7197 7.30825 13.2775 7.14067L13.0677 8.56587L13.1385 8.57949L13.411 8.63672C13.5091 8.65035 13.6345 8.6776 13.8143 8.69122C14.1795 8.71847 14.4738 8.74845 14.6673 8.74845C16.3023 8.74845 17.0435 8.09171 17.0435 6.69377C17.0739 6.32754 16.9839 5.96141 16.7871 5.65103C16.5904 5.34065 16.2977 5.10302 15.9535 4.97427C15.3104 4.66634 15.2422 4.59549 15.2422 4.30391C15.2422 3.966 15.4929 3.79978 15.9971 3.79978C16.3622 3.80841 16.7263 3.84118 17.0871 3.89788L17.3105 2.47268C16.8601 2.39718 16.4047 2.35438 15.948 2.3446C14.2013 2.3446 13.6018 3.28202 13.6154 4.42926H13.6426Z" fill="white" fill-opacity="0.5"/>
<path fill-rule="evenodd" clip-rule="evenodd" d="M13.6426 4.42926C13.6426 5.21135 14.0051 5.74273 14.8171 6.14876C15.4303 6.45396 15.542 6.55207 15.542 6.83274C15.542 7.2088 15.2695 7.39138 14.6618 7.39138C14.1889 7.39322 13.7197 7.30825 13.2775 7.14067L13.0677 8.56587L13.1385 8.57949L13.411 8.63672C13.5091 8.65035 13.6345 8.6776 13.8143 8.69122C14.1795 8.71847 14.4738 8.74845 14.6673 8.74845C16.3023 8.74845 17.0435 8.09171 17.0435 6.69377C17.0739 6.32754 16.9839 5.96141 16.7871 5.65103C16.5904 5.34065 16.2977 5.10302 15.9535 4.97427C15.3104 4.66634 15.2422 4.59549 15.2422 4.30391C15.2422 3.966 15.4929 3.79978 15.9971 3.79978C16.3622 3.80841 16.7263 3.84118 17.0871 3.89788L17.3105 2.47268C16.8601 2.39718 16.4047 2.35438 15.948 2.3446C14.2013 2.3446 13.6018 3.28202 13.6154 4.42926H13.6426Z" fill="url(#paint4_linear)" fill-opacity="0.7"/>
<path fill-rule="evenodd" clip-rule="evenodd" d="M46.4221 8.63671H44.9534L45.0242 8.03448C44.8549 8.24997 44.6383 8.42371 44.3912 8.54229C44.1441 8.66088 43.8731 8.72115 43.599 8.71847C42.4654 8.71847 41.7242 7.6993 41.7242 6.16238C41.7242 4.1077 42.8714 2.37457 44.2421 2.37457C44.8416 2.37457 45.2885 2.64708 45.7218 3.21116L46.057 1.03113H47.583L46.4221 8.62309V8.63671ZM44.144 7.19517C44.8689 7.19517 45.373 6.34223 45.373 5.11324C45.373 4.33115 45.0787 3.89787 44.5555 3.89787C43.8579 3.89787 43.3538 4.76443 43.3538 5.96618C43.3538 6.78369 43.6263 7.19517 44.1522 7.19517H44.144Z" fill="white" fill-opacity="0.5"/>
<path fill-rule="evenodd" clip-rule="evenodd" d="M46.4221 8.63671H44.9534L45.0242 8.03448C44.8549 8.24997 44.6383 8.42371 44.3912 8.54229C44.1441 8.66088 43.8731 8.72115 43.599 8.71847C42.4654 8.71847 41.7242 7.6993 41.7242 6.16238C41.7242 4.1077 42.8714 2.37457 44.2421 2.37457C44.8416 2.37457 45.2885 2.64708 45.7218 3.21116L46.057 1.03113H47.583L46.4221 8.62309V8.63671ZM44.144 7.19517C44.8689 7.19517 45.373 6.34223 45.373 5.11324C45.373 4.33115 45.0787 3.89787 44.5555 3.89787C43.8579 3.89787 43.3538 4.76443 43.3538 5.96618C43.3538 6.78369 43.6263 7.19517 44.1522 7.19517H44.144Z" fill="url(#paint5_linear)" fill-opacity="0.7"/>
<path fill-rule="evenodd" clip-rule="evenodd" d="M24.63 8.5114C24.115 8.67777 23.5771 8.76237 23.0359 8.7621C21.3164 8.7621 20.4062 7.81106 20.4062 5.99346C20.4062 3.87066 21.5535 2.31738 23.1067 2.31738C24.3848 2.31738 25.2023 3.19757 25.2023 4.56827C25.1894 5.07958 25.1191 5.58783 24.9925 6.08339H21.9322C21.9202 6.14807 21.9147 6.21381 21.9159 6.27959C21.9159 7.00718 22.3791 7.36961 23.2784 7.36961C23.8375 7.36515 24.3879 7.23081 24.8862 6.9772L24.6491 8.50322L24.63 8.5114ZM23.7635 4.83259C23.7691 4.73094 23.7691 4.62905 23.7635 4.52739C23.7635 4.02326 23.491 3.72895 23.0359 3.72895C22.5808 3.72895 22.2047 4.12136 22.0712 4.83259H23.7635Z" fill="white" fill-opacity="0.5"/>
<path fill-rule="evenodd" clip-rule="evenodd" d="M24.63 8.5114C24.115 8.67777 23.5771 8.76237 23.0359 8.7621C21.3164 8.7621 20.4062 7.81106 20.4062 5.99346C20.4062 3.87066 21.5535 2.31738 23.1067 2.31738C24.3848 2.31738 25.2023 3.19757 25.2023 4.56827C25.1894 5.07958 25.1191 5.58783 24.9925 6.08339H21.9322C21.9202 6.14807 21.9147 6.21381 21.9159 6.27959C21.9159 7.00718 22.3791 7.36961 23.2784 7.36961C23.8375 7.36515 24.3879 7.23081 24.8862 6.9772L24.6491 8.50322L24.63 8.5114ZM23.7635 4.83259C23.7691 4.73094 23.7691 4.62905 23.7635 4.52739C23.7635 4.02326 23.491 3.72895 23.0359 3.72895C22.5808 3.72895 22.2047 4.12136 22.0712 4.83259H23.7635Z" fill="url(#paint6_linear)" fill-opacity="0.7"/>
<path fill-rule="evenodd" clip-rule="evenodd" d="M7.43491 8.63675H5.89799L6.77818 2.80789L4.79435 8.63675H3.74521L3.61986 2.84876L2.68244 8.63675H1.24362L2.44536 1.05841H4.66627L4.7235 5.75638L6.23317 1.05841H8.63665L7.43491 8.63675Z" fill="white" fill-opacity="0.5"/>
<path fill-rule="evenodd" clip-rule="evenodd" d="M7.43491 8.63675H5.89799L6.77818 2.80789L4.79435 8.63675H3.74521L3.61986 2.84876L2.68244 8.63675H1.24362L2.44536 1.05841H4.66627L4.7235 5.75638L6.23317 1.05841H8.63665L7.43491 8.63675Z" fill="url(#paint7_linear)" fill-opacity="0.7"/>
<path fill-rule="evenodd" clip-rule="evenodd" d="M11.4189 5.89535C11.2527 5.89535 11.1819 5.8681 11.0701 5.8681C10.19 5.8681 9.75668 6.18965 9.75668 6.80551C9.74757 6.88331 9.75476 6.96215 9.77779 7.03701C9.80083 7.11188 9.83921 7.18112 9.89048 7.24034C9.94175 7.29956 10.0048 7.34745 10.0756 7.38096C10.1464 7.41447 10.2234 7.43288 10.3017 7.43499C10.9175 7.43499 11.3917 6.80551 11.4053 5.89535H11.4189ZM12.5389 8.63674H11.2527L11.28 7.99363C11.094 8.24099 10.8495 8.43824 10.5683 8.56763C10.2872 8.69701 9.97832 8.75447 9.66947 8.73484C8.83016 8.73484 8.2579 8.04813 8.2579 7.05621C8.2579 5.54654 9.26344 4.67998 10.9693 4.67998C11.1725 4.68215 11.3754 4.6958 11.577 4.72085C11.6092 4.58869 11.6274 4.45352 11.6315 4.31755C11.6315 3.91152 11.359 3.75619 10.6396 3.75619C10.2044 3.756 9.77134 3.81747 9.35337 3.93877L9.15717 4.00962L9.01819 4.05049L9.22802 2.66617C9.82145 2.45789 10.4441 2.34477 11.0729 2.33099C12.4 2.33099 13.1003 2.96048 13.1003 4.13497C13.0892 4.54719 13.0473 4.958 12.9749 5.36396L12.667 7.56035L12.6098 7.95003L12.5798 8.26341L12.5526 8.48686V8.64219L12.5389 8.63674Z" fill="white" fill-opacity="0.5"/>
<path fill-rule="evenodd" clip-rule="evenodd" d="M11.4189 5.89535C11.2527 5.89535 11.1819 5.8681 11.0701 5.8681C10.19 5.8681 9.75668 6.18965 9.75668 6.80551C9.74757 6.88331 9.75476 6.96215 9.77779 7.03701C9.80083 7.11188 9.83921 7.18112 9.89048 7.24034C9.94175 7.29956 10.0048 7.34745 10.0756 7.38096C10.1464 7.41447 10.2234 7.43288 10.3017 7.43499C10.9175 7.43499 11.3917 6.80551 11.4053 5.89535H11.4189ZM12.5389 8.63674H11.2527L11.28 7.99363C11.094 8.24099 10.8495 8.43824 10.5683 8.56763C10.2872 8.69701 9.97832 8.75447 9.66947 8.73484C8.83016 8.73484 8.2579 8.04813 8.2579 7.05621C8.2579 5.54654 9.26344 4.67998 10.9693 4.67998C11.1725 4.68215 11.3754 4.6958 11.577 4.72085C11.6092 4.58869 11.6274 4.45352 11.6315 4.31755C11.6315 3.91152 11.359 3.75619 10.6396 3.75619C10.2044 3.756 9.77134 3.81747 9.35337 3.93877L9.15717 4.00962L9.01819 4.05049L9.22802 2.66617C9.82145 2.45789 10.4441 2.34477 11.0729 2.33099C12.4 2.33099 13.1003 2.96048 13.1003 4.13497C13.0892 4.54719 13.0473 4.958 12.9749 5.36396L12.667 7.56035L12.6098 7.95003L12.5798 8.26341L12.5526 8.48686V8.64219L12.5389 8.63674Z" fill="url(#paint8_linear)" fill-opacity="0.7"/>
<path fill-rule="evenodd" clip-rule="evenodd" d="M36.7755 5.89534C36.6229 5.89534 36.5384 5.86809 36.4267 5.86809C35.5465 5.86809 35.0996 6.18964 35.0996 6.8055C35.0887 6.88526 35.095 6.96643 35.1181 7.04355C35.1412 7.12067 35.1805 7.19195 35.2334 7.25261C35.2863 7.31328 35.3516 7.36191 35.4249 7.39524C35.4981 7.42858 35.5777 7.44585 35.6582 7.44589C36.2877 7.44589 36.7482 6.8164 36.7755 5.90624V5.89534ZM37.8955 8.63673H36.6092L36.6474 7.99089C36.4593 8.24209 36.2108 8.44173 35.925 8.5713C35.6392 8.70088 35.3253 8.75619 35.0124 8.7321C34.1731 8.7321 33.6008 8.04539 33.6008 7.05348C33.6008 5.54381 34.6063 4.67725 36.3258 4.67725C36.5363 4.679 36.7464 4.69265 36.9553 4.71812C36.9875 4.58595 37.0058 4.45078 37.0098 4.31482C37.0098 3.90878 36.7373 3.75346 36.0179 3.75346C35.5827 3.7536 35.1497 3.81506 34.7317 3.93603L34.5082 3.99326L34.3693 4.03414L34.5791 2.64982C35.1725 2.44153 35.7952 2.32841 36.4239 2.31464C37.751 2.31464 38.4514 2.94412 38.4514 4.11861C38.4403 4.53083 38.3984 4.94164 38.326 5.34761L38.0045 7.52764L37.9609 7.92004L37.92 8.22797L37.8927 8.4378L37.9064 8.634L37.8955 8.63673Z" fill="white" fill-opacity="0.5"/>
<path fill-rule="evenodd" clip-rule="evenodd" d="M36.7755 5.89534C36.6229 5.89534 36.5384 5.86809 36.4267 5.86809C35.5465 5.86809 35.0996 6.18964 35.0996 6.8055C35.0887 6.88526 35.095 6.96643 35.1181 7.04355C35.1412 7.12067 35.1805 7.19195 35.2334 7.25261C35.2863 7.31328 35.3516 7.36191 35.4249 7.39524C35.4981 7.42858 35.5777 7.44585 35.6582 7.44589C36.2877 7.44589 36.7482 6.8164 36.7755 5.90624V5.89534ZM37.8955 8.63673H36.6092L36.6474 7.99089C36.4593 8.24209 36.2108 8.44173 35.925 8.5713C35.6392 8.70088 35.3253 8.75619 35.0124 8.7321C34.1731 8.7321 33.6008 8.04539 33.6008 7.05348C33.6008 5.54381 34.6063 4.67725 36.3258 4.67725C36.5363 4.679 36.7464 4.69265 36.9553 4.71812C36.9875 4.58595 37.0058 4.45078 37.0098 4.31482C37.0098 3.90878 36.7373 3.75346 36.0179 3.75346C35.5827 3.7536 35.1497 3.81506 34.7317 3.93603L34.5082 3.99326L34.3693 4.03414L34.5791 2.64982C35.1725 2.44153 35.7952 2.32841 36.4239 2.31464C37.751 2.31464 38.4514 2.94412 38.4514 4.11861C38.4403 4.53083 38.3984 4.94164 38.326 5.34761L38.0045 7.52764L37.9609 7.92004L37.92 8.22797L37.8927 8.4378L37.9064 8.634L37.8955 8.63673Z" fill="url(#paint9_linear)" fill-opacity="0.7"/>
<path fill-rule="evenodd" clip-rule="evenodd" d="M42.2146 2.42908C42.1631 2.42167 42.1108 2.42167 42.0593 2.42908C41.5579 2.42908 41.2636 2.70159 40.7894 3.43462L40.9284 2.49994H39.5304L38.5794 8.66398H40.13C40.6913 4.8898 40.8303 4.24669 41.5715 4.24669H41.6832C41.7915 3.62486 41.9888 3.02188 42.2691 2.45634H42.2146V2.42908Z" fill="white" fill-opacity="0.5"/>
<path fill-rule="evenodd" clip-rule="evenodd" d="M42.2146 2.42908C42.1631 2.42167 42.1108 2.42167 42.0593 2.42908C41.5579 2.42908 41.2636 2.70159 40.7894 3.43462L40.9284 2.49994H39.5304L38.5794 8.66398H40.13C40.6913 4.8898 40.8303 4.24669 41.5715 4.24669H41.6832C41.7915 3.62486 41.9888 3.02188 42.2691 2.45634H42.2146V2.42908Z" fill="url(#paint10_linear)" fill-opacity="0.7"/>
<path fill-rule="evenodd" clip-rule="evenodd" d="M35.729 14.6318C35.729 16.0298 35.2958 16.8554 34.609 16.8554C34.1076 16.8554 33.8133 16.3104 33.8133 15.4929C33.8133 14.5146 34.2602 13.3974 34.9579 13.3974C35.5328 13.3974 35.729 13.9969 35.729 14.64V14.6318ZM37.2523 14.6454C37.2523 13.0949 36.4839 11.8795 35.0423 11.8795C33.3801 11.8795 32.3173 13.3456 32.3173 15.5147C32.3173 17.0653 32.9604 18.3379 34.5246 18.3379C36.0887 18.3379 37.266 17.2179 37.266 14.6454H37.2523Z" fill="white" fill-opacity="0.5"/>
<path fill-rule="evenodd" clip-rule="evenodd" d="M35.729 14.6318C35.729 16.0298 35.2958 16.8554 34.609 16.8554C34.1076 16.8554 33.8133 16.3104 33.8133 15.4929C33.8133 14.5146 34.2602 13.3974 34.9579 13.3974C35.5328 13.3974 35.729 13.9969 35.729 14.64V14.6318ZM37.2523 14.6454C37.2523 13.0949 36.4839 11.8795 35.0423 11.8795C33.3801 11.8795 32.3173 13.3456 32.3173 15.5147C32.3173 17.0653 32.9604 18.3379 34.5246 18.3379C36.0887 18.3379 37.266 17.2179 37.266 14.6454H37.2523Z" fill="url(#paint11_linear)" fill-opacity="0.7"/>
<path fill-rule="evenodd" clip-rule="evenodd" d="M32.7915 10.8031L32.5544 12.4382C32.1715 12.1863 31.7262 12.0458 31.2682 12.0321C30.1781 12.0321 29.4369 13.2066 29.4369 14.8716C29.4369 16.0161 29.9411 16.7165 30.7804 16.7165C31.2177 16.6992 31.6431 16.5687 32.0148 16.3377L31.7587 18.0735C31.3455 18.2195 30.9107 18.295 30.4724 18.297C28.9192 18.297 27.9409 17.0408 27.9409 15.027C27.9409 12.3019 29.2843 10.4135 31.2109 10.4135C31.4284 10.4088 31.6452 10.4373 31.854 10.4979L32.4399 10.6669C32.5673 10.6937 32.6897 10.7406 32.8024 10.8059L32.7915 10.8031Z" fill="white" fill-opacity="0.5"/>
<path fill-rule="evenodd" clip-rule="evenodd" d="M32.7915 10.8031L32.5544 12.4382C32.1715 12.1863 31.7262 12.0458 31.2682 12.0321C30.1781 12.0321 29.4369 13.2066 29.4369 14.8716C29.4369 16.0161 29.9411 16.7165 30.7804 16.7165C31.2177 16.6992 31.6431 16.5687 32.0148 16.3377L31.7587 18.0735C31.3455 18.2195 30.9107 18.295 30.4724 18.297C28.9192 18.297 27.9409 17.0408 27.9409 15.027C27.9409 12.3019 29.2843 10.4135 31.2109 10.4135C31.4284 10.4088 31.6452 10.4373 31.854 10.4979L32.4399 10.6669C32.5673 10.6937 32.6897 10.7406 32.8024 10.8059L32.7915 10.8031Z" fill="url(#paint12_linear)" fill-opacity="0.7"/>
<path fill-rule="evenodd" clip-rule="evenodd" d="M23.2456 11.9204C23.1948 11.9085 23.1424 11.9039 23.0903 11.9068C22.6161 11.9068 22.3518 12.1793 21.9022 12.9123L22.0439 11.9777H20.744L19.8611 18.1417H21.3027C21.8204 14.3675 21.9594 13.7135 22.6434 13.7135C22.6811 13.7126 22.7187 13.7172 22.7551 13.7271C22.8512 13.1076 23.0347 12.5048 23.3001 11.9368L23.2456 11.9095V11.9204Z" fill="white" fill-opacity="0.5"/>
<path fill-rule="evenodd" clip-rule="evenodd" d="M23.2456 11.9204C23.1948 11.9085 23.1424 11.9039 23.0903 11.9068C22.6161 11.9068 22.3518 12.1793 21.9022 12.9123L22.0439 11.9777H20.744L19.8611 18.1417H21.3027C21.8204 14.3675 21.9594 13.7135 22.6434 13.7135C22.6811 13.7126 22.7187 13.7172 22.7551 13.7271C22.8512 13.1076 23.0347 12.5048 23.3001 11.9368L23.2456 11.9095V11.9204Z" fill="url(#paint13_linear)" fill-opacity="0.7"/>
<path fill-rule="evenodd" clip-rule="evenodd" d="M42.0974 18.0736H40.7349L40.8058 17.4741C40.6532 17.6875 40.4514 17.8611 40.2176 17.9802C39.9838 18.0992 39.7247 18.1602 39.4623 18.1581C38.4132 18.1581 37.7156 17.1389 37.7156 15.5993C37.7156 13.5446 38.792 11.8115 40.0646 11.8115C40.6232 11.8115 41.0565 12.084 41.4489 12.6644L41.7677 10.498H43.1875L42.0974 18.0736ZM39.9583 16.6212C40.6423 16.6212 41.1028 15.7682 41.1028 14.5392C41.1028 13.7544 40.8303 13.3348 40.3343 13.3348C39.6776 13.3348 39.2171 14.1877 39.2171 15.4058C39.2171 16.2233 39.4678 16.6212 39.9583 16.6212Z" fill="white" fill-opacity="0.5"/>
<path fill-rule="evenodd" clip-rule="evenodd" d="M42.0974 18.0736H40.7349L40.8058 17.4741C40.6532 17.6875 40.4514 17.8611 40.2176 17.9802C39.9838 18.0992 39.7247 18.1602 39.4623 18.1581C38.4132 18.1581 37.7156 17.1389 37.7156 15.5993C37.7156 13.5446 38.792 11.8115 40.0646 11.8115C40.6232 11.8115 41.0565 12.084 41.4489 12.6644L41.7677 10.498H43.1875L42.0974 18.0736ZM39.9583 16.6212C40.6423 16.6212 41.1028 15.7682 41.1028 14.5392C41.1028 13.7544 40.8303 13.3348 40.3343 13.3348C39.6776 13.3348 39.2171 14.1877 39.2171 15.4058C39.2171 16.2233 39.4678 16.6212 39.9583 16.6212Z" fill="url(#paint14_linear)" fill-opacity="0.7"/>
<path fill-rule="evenodd" clip-rule="evenodd" d="M9.71309 18.0572C9.23775 18.2245 8.73731 18.3093 8.23339 18.3079C6.62562 18.3079 5.78085 17.3596 5.78085 15.542C5.7863 13.441 6.86269 11.8659 8.30697 11.8659C9.49508 11.8659 10.2499 12.7325 10.2499 14.1168C10.2418 14.6293 10.1815 15.1397 10.0701 15.6401H7.19787C7.18793 15.7041 7.18337 15.7688 7.18425 15.8336C7.18425 16.5475 7.61753 16.91 8.45684 16.91C8.97636 16.9039 9.48641 16.77 9.94199 16.5203L9.70219 18.0572H9.71309ZM8.89557 14.3811C8.89557 14.2558 8.89557 14.144 8.89557 14.0732C8.89557 13.5691 8.64487 13.2775 8.21159 13.2775C7.77831 13.2775 7.42678 13.6672 7.2878 14.3811H8.89557Z" fill="white" fill-opacity="0.5"/>
<path fill-rule="evenodd" clip-rule="evenodd" d="M9.71309 18.0572C9.23775 18.2245 8.73731 18.3093 8.23339 18.3079C6.62562 18.3079 5.78085 17.3596 5.78085 15.542C5.7863 13.441 6.86269 11.8659 8.30697 11.8659C9.49508 11.8659 10.2499 12.7325 10.2499 14.1168C10.2418 14.6293 10.1815 15.1397 10.0701 15.6401H7.19787C7.18793 15.7041 7.18337 15.7688 7.18425 15.8336C7.18425 16.5475 7.61753 16.91 8.45684 16.91C8.97636 16.9039 9.48641 16.77 9.94199 16.5203L9.70219 18.0572H9.71309ZM8.89557 14.3811C8.89557 14.2558 8.89557 14.144 8.89557 14.0732C8.89557 13.5691 8.64487 13.2775 8.21159 13.2775C7.77831 13.2775 7.42678 13.6672 7.2878 14.3811H8.89557Z" fill="url(#paint15_linear)" fill-opacity="0.7"/>
<path fill-rule="evenodd" clip-rule="evenodd" d="M26.8809 18.0572C26.4046 18.2245 25.9032 18.3093 25.3984 18.3079C23.7634 18.3079 22.9459 17.3596 22.9459 15.542C22.9459 13.4301 24.0359 11.8659 25.4611 11.8659C26.6492 11.8659 27.4177 12.7325 27.4177 14.1168C27.4095 14.6293 27.3493 15.1397 27.2378 15.6401H24.3629C24.3575 15.7045 24.3575 15.7692 24.3629 15.8336C24.3629 16.5475 24.7962 16.91 25.6355 16.91C26.1514 16.9024 26.6575 16.7686 27.1098 16.5203L26.8727 18.0572H26.8809ZM26.0633 14.3811C26.069 14.2786 26.069 14.1758 26.0633 14.0732C26.0633 13.5691 25.8126 13.2775 25.3794 13.2775C24.9461 13.2775 24.5973 13.6672 24.4556 14.3811H26.0633Z" fill="white" fill-opacity="0.5"/>
<path fill-rule="evenodd" clip-rule="evenodd" d="M26.8809 18.0572C26.4046 18.2245 25.9032 18.3093 25.3984 18.3079C23.7634 18.3079 22.9459 17.3596 22.9459 15.542C22.9459 13.4301 24.0359 11.8659 25.4611 11.8659C26.6492 11.8659 27.4177 12.7325 27.4177 14.1168C27.4095 14.6293 27.3493 15.1397 27.2378 15.6401H24.3629C24.3575 15.7045 24.3575 15.7692 24.3629 15.8336C24.3629 16.5475 24.7962 16.91 25.6355 16.91C26.1514 16.9024 26.6575 16.7686 27.1098 16.5203L26.8727 18.0572H26.8809ZM26.0633 14.3811C26.069 14.2786 26.069 14.1758 26.0633 14.0732C26.0633 13.5691 25.8126 13.2775 25.3794 13.2775C24.9461 13.2775 24.5973 13.6672 24.4556 14.3811H26.0633Z" fill="url(#paint16_linear)" fill-opacity="0.7"/>
<path fill-rule="evenodd" clip-rule="evenodd" d="M47.0025 18.0572C46.5266 18.2223 46.0266 18.3071 45.5228 18.3079C43.9151 18.3079 43.0703 17.3596 43.0703 15.542C43.0703 13.4301 44.1467 11.8659 45.5991 11.8659C46.7873 11.8659 47.5421 12.7325 47.5421 14.1168C47.5342 14.6295 47.473 15.14 47.3595 15.6401H44.4928C44.4874 15.7045 44.4874 15.7692 44.4928 15.8336C44.4928 16.5475 44.9261 16.91 45.7654 16.91C46.2878 16.9059 46.8009 16.772 47.2587 16.5203L47.0025 18.0572ZM46.185 14.3811C46.185 14.2558 46.185 14.144 46.185 14.0732C46.185 13.5691 45.9343 13.2775 45.501 13.2775C45.0678 13.2775 44.7162 13.6672 44.5773 14.3811H46.185Z" fill="white" fill-opacity="0.5"/>
<path fill-rule="evenodd" clip-rule="evenodd" d="M47.0025 18.0572C46.5266 18.2223 46.0266 18.3071 45.5228 18.3079C43.9151 18.3079 43.0703 17.3596 43.0703 15.542C43.0703 13.4301 44.1467 11.8659 45.5991 11.8659C46.7873 11.8659 47.5421 12.7325 47.5421 14.1168C47.5342 14.6295 47.473 15.14 47.3595 15.6401H44.4928C44.4874 15.7045 44.4874 15.7692 44.4928 15.8336C44.4928 16.5475 44.9261 16.91 45.7654 16.91C46.2878 16.9059 46.8009 16.772 47.2587 16.5203L47.0025 18.0572ZM46.185 14.3811C46.185 14.2558 46.185 14.144 46.185 14.0732C46.185 13.5691 45.9343 13.2775 45.501 13.2775C45.0678 13.2775 44.7162 13.6672 44.5773 14.3811H46.185Z" fill="url(#paint17_linear)" fill-opacity="0.7"/>
<path fill-rule="evenodd" clip-rule="evenodd" d="M5.43748 12.201C5.08215 11.9621 4.66104 11.8401 4.23301 11.8522C3.64713 11.8522 3.1866 11.9775 3.1866 12.5907C3.1866 13.6834 5.3094 13.2774 5.3094 15.6209C5.3094 17.7574 3.91146 18.3187 2.64159 18.3187C2.05612 18.3018 1.48028 18.1654 0.949341 17.9181L1.29815 16.3512C1.69012 16.6473 2.16948 16.8045 2.66067 16.7981C3.1212 16.7981 3.82153 16.6728 3.82153 15.8771C3.82153 14.6317 1.696 15.095 1.696 12.9122C1.696 10.9148 2.93862 10.3262 4.14854 10.3262C4.8189 10.3262 5.46201 10.4243 5.82444 10.6777L5.44838 12.201H5.43748Z" fill="white" fill-opacity="0.5"/>
<path fill-rule="evenodd" clip-rule="evenodd" d="M5.43748 12.201C5.08215 11.9621 4.66104 11.8401 4.23301 11.8522C3.64713 11.8522 3.1866 11.9775 3.1866 12.5907C3.1866 13.6834 5.3094 13.2774 5.3094 15.6209C5.3094 17.7574 3.91146 18.3187 2.64159 18.3187C2.05612 18.3018 1.48028 18.1654 0.949341 17.9181L1.29815 16.3512C1.69012 16.6473 2.16948 16.8045 2.66067 16.7981C3.1212 16.7981 3.82153 16.6728 3.82153 15.8771C3.82153 14.6317 1.696 15.095 1.696 12.9122C1.696 10.9148 2.93862 10.3262 4.14854 10.3262C4.8189 10.3262 5.46201 10.4243 5.82444 10.6777L5.44838 12.201H5.43748Z" fill="url(#paint18_linear)" fill-opacity="0.7"/>
<path fill-rule="evenodd" clip-rule="evenodd" d="M13.9343 18.0572C13.5295 18.2309 13.0909 18.3119 12.6508 18.2942C11.3918 18.2942 10.6097 17.038 10.6097 15.4984C10.6097 13.4873 11.7406 11.8931 13.4056 11.8931C13.8856 11.9182 14.3527 12.0574 14.7681 12.2992L14.4384 13.7652C14.1601 13.5642 13.8278 13.4512 13.4846 13.441C12.7162 13.441 12.1575 14.1549 12.1575 15.4112C12.1575 16.1387 12.5636 16.741 13.1903 16.741C13.5313 16.7443 13.8661 16.6497 14.155 16.4685L13.9452 18.0626L13.9343 18.0572Z" fill="white" fill-opacity="0.5"/>
<path fill-rule="evenodd" clip-rule="evenodd" d="M13.9343 18.0572C13.5295 18.2309 13.0909 18.3119 12.6508 18.2942C11.3918 18.2942 10.6097 17.038 10.6097 15.4984C10.6097 13.4873 11.7406 11.8931 13.4056 11.8931C13.8856 11.9182 14.3527 12.0574 14.7681 12.2992L14.4384 13.7652C14.1601 13.5642 13.8278 13.4512 13.4846 13.441C12.7162 13.441 12.1575 14.1549 12.1575 15.4112C12.1575 16.1387 12.5636 16.741 13.1903 16.741C13.5313 16.7443 13.8661 16.6497 14.155 16.4685L13.9452 18.0626L13.9343 18.0572Z" fill="url(#paint19_linear)" fill-opacity="0.7"/>
<path fill-rule="evenodd" clip-rule="evenodd" d="M19.3325 16.5067C19.2616 17.0517 19.1908 17.5531 19.1499 18.0981H17.7656L17.8773 17.1062C17.444 17.7793 16.9971 18.2398 16.1987 18.2398C15.3321 18.2398 14.858 17.316 14.858 16.1279C14.8623 15.6969 14.8996 15.2669 14.9697 14.8417L15.3621 11.9913H16.9127L16.4821 14.8553C16.4285 15.1652 16.3957 15.4784 16.384 15.7927C16.384 16.1551 16.5529 16.5203 16.9726 16.493C17.5994 16.493 17.9781 15.7219 18.0899 14.8144L18.5231 11.9913H20.0246L19.3325 16.5067Z" fill="white" fill-opacity="0.5"/>
<path fill-rule="evenodd" clip-rule="evenodd" d="M19.3325 16.5067C19.2616 17.0517 19.1908 17.5531 19.1499 18.0981H17.7656L17.8773 17.1062C17.444 17.7793 16.9971 18.2398 16.1987 18.2398C15.3321 18.2398 14.858 17.316 14.858 16.1279C14.8623 15.6969 14.8996 15.2669 14.9697 14.8417L15.3621 11.9913H16.9127L16.4821 14.8553C16.4285 15.1652 16.3957 15.4784 16.384 15.7927C16.384 16.1551 16.5529 16.5203 16.9726 16.493C17.5994 16.493 17.9781 15.7219 18.0899 14.8144L18.5231 11.9913H20.0246L19.3325 16.5067Z" fill="url(#paint20_linear)" fill-opacity="0.7"/>
<path fill-rule="evenodd" clip-rule="evenodd" d="M48.4495 18.03H48.2097V17.0081H47.8745V16.7846H48.7847V17.0081H48.4495V18.03Z" fill="white" fill-opacity="0.5"/>
<path fill-rule="evenodd" clip-rule="evenodd" d="M48.4495 18.03H48.2097V17.0081H47.8745V16.7846H48.7847V17.0081H48.4495V18.03Z" fill="url(#paint21_linear)" fill-opacity="0.7"/>
<path fill-rule="evenodd" clip-rule="evenodd" d="M50.0001 18.03H49.7766V16.9944L49.5668 18.03H49.3433L49.1335 16.9944V18.03H48.9101V16.7846H49.2589L49.4551 17.7629H49.4687L49.6649 16.7846H50.0001V18.03Z" fill="white" fill-opacity="0.5"/>
<path fill-rule="evenodd" clip-rule="evenodd" d="M50.0001 18.03H49.7766V16.9944L49.5668 18.03H49.3433L49.1335 16.9944V18.03H48.9101V16.7846H49.2589L49.4551 17.7629H49.4687L49.6649 16.7846H50.0001V18.03Z" fill="url(#paint22_linear)" fill-opacity="0.7"/>
<defs>
<linearGradient id="paint0_linear" x1="49.2984" y1="6.65489" x2="46.6904" y2="7.61643" gradientUnits="userSpaceOnUse">
<stop stop-color="#EB001B"/>
<stop offset="1" stop-color="#F79E1B"/>
</linearGradient>
<linearGradient id="paint1_linear" x1="34.488" y1="0.0419844" x2="26.6517" y2="1.93768" gradientUnits="userSpaceOnUse">
<stop stop-color="#EB001B"/>
<stop offset="1" stop-color="#F79E1B"/>
</linearGradient>
<linearGradient id="paint2_linear" x1="29.3022" y1="1.74168" x2="23.6544" y2="2.97576" gradientUnits="userSpaceOnUse">
<stop stop-color="#EB001B"/>
<stop offset="1" stop-color="#F79E1B"/>
</linearGradient>
<linearGradient id="paint3_linear" x1="20.6718" y1="0.772485" x2="15.9421" y2="1.50252" gradientUnits="userSpaceOnUse">
<stop stop-color="#EB001B"/>
<stop offset="1" stop-color="#F79E1B"/>
</linearGradient>
<linearGradient id="paint4_linear" x1="17.6225" y1="1.64323" x2="11.2012" y2="3.21205" gradientUnits="userSpaceOnUse">
<stop stop-color="#EB001B"/>
<stop offset="1" stop-color="#F79E1B"/>
</linearGradient>
<linearGradient id="paint5_linear" x1="48.0138" y1="0.189172" x2="39.3053" y2="2.63653" gradientUnits="userSpaceOnUse">
<stop stop-color="#EB001B"/>
<stop offset="1" stop-color="#F79E1B"/>
</linearGradient>
<linearGradient id="paint6_linear" x1="25.5549" y1="1.61153" x2="18.4018" y2="3.57446" gradientUnits="userSpaceOnUse">
<stop stop-color="#EB001B"/>
<stop offset="1" stop-color="#F79E1B"/>
</linearGradient>
<linearGradient id="paint7_linear" x1="9.18026" y1="0.228402" x2="-1.31799" y2="4.00491" gradientUnits="userSpaceOnUse">
<stop stop-color="#EB001B"/>
<stop offset="1" stop-color="#F79E1B"/>
</linearGradient>
<linearGradient id="paint8_linear" x1="13.4564" y1="1.62921" x2="6.24988" y2="3.63744" gradientUnits="userSpaceOnUse">
<stop stop-color="#EB001B"/>
<stop offset="1" stop-color="#F79E1B"/>
</linearGradient>
<linearGradient id="paint9_linear" x1="38.808" y1="1.61117" x2="31.5886" y2="3.62157" gradientUnits="userSpaceOnUse">
<stop stop-color="#EB001B"/>
<stop offset="1" stop-color="#F79E1B"/>
</linearGradient>
<linearGradient id="paint10_linear" x1="42.5404" y1="1.74004" x2="36.8915" y2="2.97164" gradientUnits="userSpaceOnUse">
<stop stop-color="#EB001B"/>
<stop offset="1" stop-color="#F79E1B"/>
</linearGradient>
<linearGradient id="paint11_linear" x1="37.6298" y1="11.1722" x2="30.28" y2="13.2488" gradientUnits="userSpaceOnUse">
<stop stop-color="#EB001B"/>
<stop offset="1" stop-color="#F79E1B"/>
</linearGradient>
<linearGradient id="paint12_linear" x1="33.1598" y1="9.54947" x2="25.7464" y2="11.2351" gradientUnits="userSpaceOnUse">
<stop stop-color="#EB001B"/>
<stop offset="1" stop-color="#F79E1B"/>
</linearGradient>
<linearGradient id="paint13_linear" x1="23.553" y1="11.223" x2="18.2566" y2="12.3001" gradientUnits="userSpaceOnUse">
<stop stop-color="#EB001B"/>
<stop offset="1" stop-color="#F79E1B"/>
</linearGradient>
<linearGradient id="paint14_linear" x1="43.5898" y1="9.65902" x2="35.3835" y2="11.8206" gradientUnits="userSpaceOnUse">
<stop stop-color="#EB001B"/>
<stop offset="1" stop-color="#F79E1B"/>
</linearGradient>
<linearGradient id="paint15_linear" x1="10.5785" y1="11.1604" x2="3.85137" y2="12.8812" gradientUnits="userSpaceOnUse">
<stop stop-color="#EB001B"/>
<stop offset="1" stop-color="#F79E1B"/>
</linearGradient>
<linearGradient id="paint16_linear" x1="27.7465" y1="11.1604" x2="21.0157" y2="12.8832" gradientUnits="userSpaceOnUse">
<stop stop-color="#EB001B"/>
<stop offset="1" stop-color="#F79E1B"/>
</linearGradient>
<linearGradient id="paint17_linear" x1="47.8709" y1="11.1604" x2="41.1402" y2="12.8832" gradientUnits="userSpaceOnUse">
<stop stop-color="#EB001B"/>
<stop offset="1" stop-color="#F79E1B"/>
</linearGradient>
<linearGradient id="paint18_linear" x1="6.1829" y1="9.4508" x2="-1.25918" y2="11.1247" gradientUnits="userSpaceOnUse">
<stop stop-color="#EB001B"/>
<stop offset="1" stop-color="#F79E1B"/>
</linearGradient>
<linearGradient id="paint19_linear" x1="15.0739" y1="11.1918" x2="8.76641" y2="12.7022" gradientUnits="userSpaceOnUse">
<stop stop-color="#EB001B"/>
<stop offset="1" stop-color="#F79E1B"/>
</linearGradient>
<linearGradient id="paint20_linear" x1="20.4045" y1="11.3069" x2="12.8232" y2="13.6185" gradientUnits="userSpaceOnUse">
<stop stop-color="#EB001B"/>
<stop offset="1" stop-color="#F79E1B"/>
</linearGradient>
<linearGradient id="paint21_linear" x1="48.8516" y1="16.6482" x2="47.4908" y2="17.015" gradientUnits="userSpaceOnUse">
<stop stop-color="#EB001B"/>
<stop offset="1" stop-color="#F79E1B"/>
</linearGradient>
<linearGradient id="paint22_linear" x1="50.0802" y1="16.6482" x2="48.497" y2="17.1592" gradientUnits="userSpaceOnUse">
<stop stop-color="#EB001B"/>
<stop offset="1" stop-color="#F79E1B"/>
</linearGradient>
</defs>
</svg>
