<svg width="61" height="24" viewBox="0 0 61 24" fill="none" xmlns="http://www.w3.org/2000/svg">
<path fill-rule="evenodd" clip-rule="evenodd" d="M41.4665 13.7813L42.0694 13.9635C42.0287 14.1324 41.9651 14.2736 41.8786 14.387C41.7921 14.501 41.6838 14.587 41.5538 14.645C41.4252 14.702 41.2613 14.7304 41.062 14.7304C40.8199 14.7304 40.6219 14.6958 40.468 14.6267C40.3156 14.5554 40.1834 14.4313 40.0715 14.2543C39.9604 14.0772 39.9048 13.8503 39.9048 13.5735C39.9048 13.2052 40.0025 12.9223 40.1979 12.725C40.3947 12.5265 40.6719 12.4273 41.0297 12.4273C41.31 12.4273 41.5303 12.4843 41.6906 12.5983C41.8517 12.7122 41.9713 12.8862 42.0492 13.1203L41.4418 13.2546C41.4212 13.1864 41.399 13.137 41.3752 13.1065C41.3371 13.0536 41.2903 13.0134 41.2348 12.9859C41.1792 12.9575 41.1168 12.9432 41.0479 12.9432C40.8922 12.9432 40.7727 13.0058 40.6895 13.1309C40.6267 13.2245 40.5953 13.3711 40.5953 13.5705C40.5953 13.8177 40.633 13.9872 40.7083 14.0787C40.7838 14.1703 40.8894 14.2161 41.0251 14.2161C41.1569 14.2161 41.2561 14.1795 41.3227 14.1062C41.3909 14.0329 41.4401 13.9261 41.4705 13.7857L41.4665 13.7813ZM42.3154 13.5792C42.3154 13.2159 42.4166 12.9331 42.6191 12.7306C42.8214 12.5281 43.1032 12.4269 43.4647 12.4269C43.8352 12.4269 44.1209 12.5266 44.3217 12.726C44.5225 12.9244 44.6229 13.203 44.6229 13.5618C44.6229 13.8221 44.5789 14.0355 44.4908 14.2022C44.4043 14.3681 44.2781 14.4978 44.1122 14.5914C43.9474 14.6836 43.7419 14.7297 43.4956 14.7297C43.2453 14.7297 43.0378 14.69 42.8729 14.6106C42.7101 14.5313 42.5774 14.4047 42.4746 14.2309C42.3728 14.0579 42.322 13.8412 42.322 13.5807L42.3154 13.5792ZM43.003 13.5822C43.003 13.8069 43.0445 13.9684 43.1275 14.0667C43.211 14.1649 43.3244 14.214 43.4679 14.214C43.6154 14.214 43.7299 14.1655 43.8113 14.0687C43.8917 13.9718 43.9318 13.7992 43.9318 13.5508C43.9318 13.3412 43.8891 13.1884 43.8036 13.0925C43.7192 12.9948 43.6047 12.946 43.4602 12.946C43.3208 12.946 43.2094 12.9948 43.126 13.0925C43.0415 13.1891 42.9993 13.3514 42.9993 13.5793L43.003 13.5822ZM44.9876 12.4647H45.8923L46.2418 13.8191L46.5894 12.4647H47.4914V14.6906H46.9297V12.9934L46.4947 14.6906H45.9865L45.553 12.9934V14.6906H44.9883V12.4649L44.9876 12.4647ZM47.9253 12.4647H49.0689C49.3179 12.4647 49.5041 12.5239 49.6275 12.6424C49.7521 12.7607 49.8145 12.929 49.8145 13.1473C49.8145 13.3718 49.7466 13.5472 49.6109 13.6734C49.4761 13.7995 49.2702 13.8626 48.993 13.8626H48.6164V14.6889H47.9254V12.4623L47.9253 12.4647ZM48.6164 13.4136H48.7849C48.9174 13.4136 49.0105 13.3909 49.0642 13.3454C49.1179 13.2989 49.1447 13.2397 49.1447 13.1679C49.1447 13.098 49.1214 13.0388 49.0748 12.9902C49.0283 12.9414 48.9408 12.917 48.8123 12.917H48.6157V13.413L48.6164 13.4136ZM50.1757 12.4647H50.8625V14.1427H51.9355V14.6906H50.1742V12.4649L50.1757 12.4647ZM52.2789 12.4647H52.9672V14.6906H52.2774V12.4649L52.2789 12.4647ZM54.8293 14.3232H54.0448L53.9364 14.6908H53.2328L54.0692 12.4655H54.8186L55.655 14.6923H54.9361L54.8262 14.326L54.8293 14.3232ZM54.6843 13.842L54.437 13.042L54.1913 13.842H54.6812H54.6843ZM55.8808 12.4647H56.5234L57.3613 13.6961V12.4647H58.01V14.6906H57.3613L56.528 13.4684V14.6909H55.8808V12.4646V12.4647ZM58.3121 12.4647H60.4031V13.0145H59.701V14.6906H59.0142V13.0148H58.3121V12.465V12.4647Z" fill="#266062"/>
<path fill-rule="evenodd" clip-rule="evenodd" d="M35.1768 15.2346L33.1846 15.8625L33.1841 15.8611C33.5794 15.1545 34.0519 14.3883 34.5318 13.7977L35.1768 15.2346ZM28.5993 0.581116L32.5059 9.28439L32.5063 9.28485C32.0631 9.89534 30.7356 11.73 29.4852 13.5307V7.75627H25.9382V15.5005C25.4471 15.1678 24.931 14.9343 24.4341 14.8511V14.4641C24.4341 14.4342 24.4142 14.4235 24.3883 14.4389C24.3883 14.4389 24.0052 14.7472 22.3217 14.9106C21.844 14.964 21.6181 14.9395 21.4457 14.9106C19.0586 14.5091 18.9441 12.7601 18.9441 12.7601C18.9411 12.7311 18.938 12.6838 18.938 12.6548V11.9878C18.938 11.9588 18.9411 11.9115 18.9441 11.8825C18.9441 11.8825 19.1044 10.0082 21.4441 9.80983H22.3187C23.3519 9.94872 24.1807 10.46 24.1807 10.46L24.1868 10.4592C24.2112 10.4741 24.2326 10.4618 24.2326 10.4327V8.08655C24.2326 8.05663 24.2112 8.02092 24.1853 8.00688C24.1853 8.00688 23.7198 7.70361 22.3004 7.61921C22.224 7.57724 20.9878 7.57098 20.6459 7.61921C15.4872 8.03282 15.2964 11.7648 15.2964 11.9354V12.8413C15.2964 12.9519 15.2964 16.7677 20.6459 17.1056C21.0696 17.1376 21.8241 17.1176 22.1512 17.109C22.2271 17.107 22.28 17.1056 22.3004 17.1056C22.3081 17.1056 22.3159 17.1056 22.3237 17.1056C22.4374 17.73 22.7462 18.3993 23.1748 19.017L7.92305 23.8243L0 2.20504L28.5993 0.581116ZM29.8792 4.82511C29.8792 5.95423 28.9087 6.86952 27.7117 6.86952L27.7112 6.87043C26.5136 6.87043 25.5433 5.9553 25.5433 4.82587C25.5433 3.6966 26.5136 2.78131 27.7111 2.78131C28.9076 2.78131 29.8792 3.69599 29.8792 4.82511ZM5.51133 17.0343C5.48173 17.0343 5.45837 17.0105 5.45837 16.9809L5.45853 7.80556C5.45853 7.77702 5.48295 7.75184 5.51194 7.75184C5.51194 7.75184 9.96584 7.75337 9.98873 7.75184C11.1279 7.69842 14.5884 8.01863 14.5884 10.9402C14.5884 14.6427 9.07298 14.2439 9.07298 14.2439C9.04322 14.2428 9.01957 14.2654 9.01957 14.2938V16.982C9.01957 17.0105 8.99576 17.0343 8.96645 17.0343H5.51133ZM8.95852 9.76847V12.19L8.96126 12.1889L9.90448 12.1905C9.90448 12.1905 10.9729 12.1422 11.1301 11.1581C11.1468 11.1352 11.153 10.7262 11.1301 10.6606C11.0339 9.82403 9.80375 9.76847 9.80375 9.76847H8.95852Z" fill="#266062"/>
<path fill-rule="evenodd" clip-rule="evenodd" d="M27.809 21.4895C28.0974 21.4895 28.318 21.4895 28.6825 21.3277C29.9421 20.6656 34.1811 10.3131 38.6522 7.12873C38.6782 7.10828 38.7152 7.07867 38.7366 7.0483C38.7653 7.00633 38.7664 6.96344 38.7664 6.96344C38.7664 6.96344 38.7664 6.75129 38.1034 6.75129C34.1229 6.64293 29.9837 14.9869 27.8088 18.2882C27.7814 18.3248 27.6318 18.2882 27.6318 18.2882C27.6318 18.2882 26.1742 16.5681 24.9074 15.9088C24.8815 15.895 24.7365 15.8508 24.5869 15.8615C24.4877 15.8615 23.8986 15.979 23.6239 16.2705C23.3003 16.6124 23.3064 16.8047 23.3095 17.2213C23.311 17.2549 23.3323 17.3938 23.372 17.464C23.6819 18.0058 25.0967 19.9503 26.2551 21.0232C26.4352 21.1514 26.7084 21.4918 27.8104 21.4918L27.809 21.4895Z" fill="#7CB342"/>
<path fill-rule="evenodd" clip-rule="evenodd" d="M39.8276 3.99103H43.1395C43.7928 3.99103 44.3194 4.07955 44.7195 4.25659C45.1231 4.43384 45.4562 4.68822 45.7186 5.01972C45.9811 5.3504 46.1714 5.73568 46.2894 6.17554C46.4074 6.6151 46.4664 7.08061 46.4664 7.57206C46.4664 8.34231 46.3779 8.9411 46.2009 9.36845C46.0271 9.79173 45.7843 10.1479 45.4726 10.4368C45.1609 10.7217 44.8262 10.9115 44.4686 11.0061C43.9797 11.1364 43.5367 11.2015 43.1397 11.2015H39.8277V3.98858L39.8276 3.99103ZM42.0571 5.62487V9.56717H42.6023C43.0683 9.56717 43.3997 9.51629 43.5965 9.41454C43.7933 9.30974 43.9472 9.12964 44.0583 8.87425C44.1694 8.61479 44.225 8.1966 44.225 7.61968C44.225 6.85554 44.1 6.33254 43.85 6.0507C43.6007 5.76885 43.1872 5.62793 42.6095 5.62793H42.0535L42.0571 5.62487ZM47.0728 8.81931L49.1928 8.68652C49.2386 9.03146 49.3317 9.29397 49.4721 9.47407C49.701 9.76609 50.0292 9.9121 50.4565 9.9121C50.775 9.9121 51.0192 9.83833 51.1891 9.6908C51.3621 9.54021 51.4486 9.36621 51.4486 9.16882C51.4486 8.98262 51.3662 8.81575 51.2013 8.66821C51.0365 8.52067 50.6559 8.38178 50.0597 8.25154C49.0819 8.03176 48.3844 7.73974 47.9672 7.37548C47.547 7.01223 47.3369 6.54825 47.3369 5.98354C47.3369 5.61317 47.4437 5.26417 47.6574 4.93654C47.8731 4.60585 48.1961 4.3469 48.6265 4.15968C49.06 3.9694 49.6522 3.87427 50.4031 3.87427C51.3239 3.87427 52.0255 4.04673 52.5078 4.39167C52.9921 4.73354 53.2806 5.27841 53.3732 6.02628L51.2715 6.1499C51.2156 5.82532 51.097 5.58926 50.9159 5.44172C50.7379 5.29419 50.4916 5.22042 50.1772 5.22042C49.9177 5.22042 49.7224 5.27638 49.5911 5.3883C49.4589 5.49718 49.3927 5.62996 49.3927 5.78666C49.3927 5.90163 49.4466 6.00491 49.5545 6.09648C49.6593 6.19213 49.9086 6.28116 50.3024 6.36358C51.2771 6.5742 51.9743 6.78787 52.3939 7.0046C52.8172 7.21827 53.124 7.48435 53.3143 7.80283C53.5086 8.1213 53.6058 8.47743 53.6058 8.8712C53.6058 9.33416 53.4776 9.761 53.2212 10.1517C52.9647 10.5424 52.6071 10.8394 52.1482 11.0426C51.6903 11.241 51.1121 11.3402 50.4136 11.3402C49.1865 11.3402 48.3366 11.1042 47.8637 10.632C47.3906 10.1599 47.123 9.55959 47.0609 8.83106L47.0728 8.81931ZM54.1836 8.81931L56.3036 8.68652C56.3494 9.03146 56.4425 9.29397 56.5829 9.47407C56.8118 9.76609 57.1399 9.9121 57.5673 9.9121C57.8858 9.9121 58.13 9.83833 58.2999 9.6908C58.4739 9.54021 58.5609 9.36621 58.5609 9.16882C58.5609 8.98262 58.4785 8.81575 58.3136 8.66821C58.1488 8.52067 57.7683 8.38178 57.172 8.25154C56.1942 8.03176 55.4967 7.73974 55.0795 7.37548C54.6593 7.01223 54.4492 6.54825 54.4492 5.98354C54.4492 5.61317 54.5555 5.26417 54.7682 4.93654C54.9849 4.60585 55.3079 4.3469 55.7373 4.15968C56.1698 3.9694 56.762 3.87427 57.5139 3.87427C58.4347 3.87427 59.1363 4.04673 59.6186 4.39167C60.1039 4.73354 60.3924 5.27841 60.484 6.02628L58.3838 6.14838C58.3269 5.82379 58.2083 5.58773 58.0282 5.4402C57.8512 5.29266 57.6049 5.21889 57.2895 5.21889C57.0301 5.21889 56.8347 5.27485 56.7034 5.38678C56.5712 5.49565 56.505 5.62894 56.505 5.78666C56.505 5.90163 56.559 6.00491 56.6668 6.09648C56.7716 6.19213 57.0209 6.28116 57.4147 6.36358C58.3894 6.57318 59.0869 6.78635 59.5072 7.00307C59.9294 7.21675 60.2362 7.48282 60.4275 7.8013C60.6208 8.11978 60.7175 8.4759 60.7175 8.86967C60.7175 9.33264 60.5898 9.75948 60.3344 10.1502C60.078 10.5409 59.7198 10.838 59.2599 11.0415C58.802 11.241 58.2241 11.3407 57.5261 11.3407C56.299 11.3407 55.4489 11.1041 54.9757 10.631C54.5036 10.1588 54.236 9.55852 54.1729 8.82999L54.1836 8.81931Z" fill="#266062"/>
</svg>
